<svg width="534" height="449" viewBox="0 0 534 449" fill="none" xmlns="http://www.w3.org/2000/svg">
<rect x="0.926875" y="0.926875" width="532.026" height="446.754" rx="23.1719" fill="#404040" stroke="#EBEBEB" stroke-width="1.85375"/>
<path d="M56.09 57.65C54.95 57.65 53.92 57.85 53 58.25C52.08 58.63 51.3 59.2 50.66 59.96C50.02 60.7 49.53 61.61 49.19 62.69C48.85 63.75 48.68 64.95 48.68 66.29C48.68 68.05 48.95 69.58 49.49 70.88C50.05 72.18 50.87 73.18 51.95 73.88C53.05 74.58 54.42 74.93 56.06 74.93C57 74.93 57.89 74.85 58.73 74.69C59.57 74.53 60.39 74.33 61.19 74.09V76.43C60.39 76.73 59.56 76.95 58.7 77.09C57.86 77.23 56.85 77.3 55.67 77.3C53.49 77.3 51.67 76.85 50.21 75.95C48.75 75.05 47.65 73.77 46.91 72.11C46.19 70.45 45.83 68.5 45.83 66.26C45.83 64.64 46.05 63.16 46.49 61.82C46.95 60.48 47.61 59.32 48.47 58.34C49.35 57.36 50.43 56.61 51.71 56.09C52.99 55.55 54.46 55.28 56.12 55.28C57.22 55.28 58.28 55.39 59.3 55.61C60.32 55.83 61.23 56.14 62.03 56.54L60.95 58.82C60.29 58.52 59.55 58.25 58.73 58.01C57.93 57.77 57.05 57.65 56.09 57.65ZM76.6051 63.14H71.3551V77H68.7451V63.14H63.5551V60.92H76.6051V63.14ZM85.8627 60.65C87.8227 60.65 89.2727 61.08 90.2127 61.94C91.1527 62.8 91.6227 64.17 91.6227 66.05V77H89.7027L89.1927 74.72H89.0727C88.6127 75.3 88.1327 75.79 87.6327 76.19C87.1527 76.57 86.5927 76.85 85.9527 77.03C85.3327 77.21 84.5727 77.3 83.6727 77.3C82.7127 77.3 81.8427 77.13 81.0627 76.79C80.3027 76.45 79.7027 75.93 79.2627 75.23C78.8227 74.51 78.6027 73.61 78.6027 72.53C78.6027 70.93 79.2327 69.7 80.4927 68.84C81.7527 67.96 83.6927 67.48 86.3127 67.4L89.0427 67.31V66.35C89.0427 65.01 88.7527 64.08 88.1727 63.56C87.5927 63.04 86.7727 62.78 85.7127 62.78C84.8727 62.78 84.0727 62.91 83.3127 63.17C82.5527 63.41 81.8427 63.69 81.1827 64.01L80.3727 62.03C81.0727 61.65 81.9027 61.33 82.8627 61.07C83.8227 60.79 84.8227 60.65 85.8627 60.65ZM86.6427 69.23C84.6427 69.31 83.2527 69.63 82.4727 70.19C81.7127 70.75 81.3327 71.54 81.3327 72.56C81.3327 73.46 81.6027 74.12 82.1427 74.54C82.7027 74.96 83.4127 75.17 84.2727 75.17C85.6327 75.17 86.7627 74.8 87.6627 74.06C88.5627 73.3 89.0127 72.14 89.0127 70.58V69.14L86.6427 69.23ZM107.689 63.14H102.439V77H99.8291V63.14H94.6391V60.92H107.689V63.14ZM113.347 70.73C113.347 70.91 113.337 71.17 113.317 71.51C113.317 71.83 113.307 72.18 113.287 72.56C113.267 72.92 113.247 73.27 113.227 73.61C113.207 73.93 113.187 74.19 113.167 74.39L121.777 60.92H125.017V77H122.557V67.52C122.557 67.2 122.557 66.78 122.557 66.26C122.577 65.74 122.597 65.23 122.617 64.73C122.637 64.21 122.657 63.82 122.677 63.56L114.127 77H110.857V60.92H113.347V70.73ZM136.584 77.3C135.164 77.3 133.894 77.01 132.774 76.43C131.674 75.85 130.804 74.95 130.164 73.73C129.544 72.51 129.234 70.95 129.234 69.05C129.234 67.07 129.564 65.46 130.224 64.22C130.884 62.98 131.774 62.07 132.894 61.49C134.034 60.91 135.324 60.62 136.764 60.62C137.584 60.62 138.374 60.71 139.134 60.89C139.894 61.05 140.514 61.25 140.994 61.49L140.184 63.68C139.704 63.5 139.144 63.33 138.504 63.17C137.864 63.01 137.264 62.93 136.704 62.93C135.624 62.93 134.734 63.16 134.034 63.62C133.334 64.08 132.814 64.76 132.474 65.66C132.134 66.56 131.964 67.68 131.964 69.02C131.964 70.3 132.134 71.39 132.474 72.29C132.814 73.19 133.324 73.87 134.004 74.33C134.684 74.79 135.534 75.02 136.554 75.02C137.434 75.02 138.204 74.93 138.864 74.75C139.544 74.57 140.164 74.35 140.724 74.09V76.43C140.184 76.71 139.584 76.92 138.924 77.06C138.284 77.22 137.504 77.3 136.584 77.3ZM155.648 63.14H150.398V77H147.788V63.14H142.598V60.92H155.648V63.14ZM161.306 70.73C161.306 70.91 161.296 71.17 161.276 71.51C161.276 71.83 161.266 72.18 161.246 72.56C161.226 72.92 161.206 73.27 161.186 73.61C161.166 73.93 161.146 74.19 161.126 74.39L169.736 60.92H172.976V77H170.516V67.52C170.516 67.2 170.516 66.78 170.516 66.26C170.536 65.74 170.556 65.23 170.576 64.73C170.596 64.21 170.616 63.82 170.636 63.56L162.086 77H158.816V60.92H161.306V70.73ZM187.603 60.92H190.483L183.613 68.66L191.053 77H187.993L180.733 68.84V77H178.093V60.92H180.733V68.72L187.603 60.92ZM200.062 60.65C202.022 60.65 203.472 61.08 204.412 61.94C205.352 62.8 205.822 64.17 205.822 66.05V77H203.902L203.392 74.72H203.272C202.812 75.3 202.332 75.79 201.832 76.19C201.352 76.57 200.792 76.85 200.152 77.03C199.532 77.21 198.772 77.3 197.872 77.3C196.912 77.3 196.042 77.13 195.262 76.79C194.502 76.45 193.902 75.93 193.462 75.23C193.022 74.51 192.802 73.61 192.802 72.53C192.802 70.93 193.432 69.7 194.692 68.84C195.952 67.96 197.892 67.48 200.512 67.4L203.242 67.31V66.35C203.242 65.01 202.952 64.08 202.372 63.56C201.792 63.04 200.972 62.78 199.912 62.78C199.072 62.78 198.272 62.91 197.512 63.17C196.752 63.41 196.042 63.69 195.382 64.01L194.572 62.03C195.272 61.65 196.102 61.33 197.062 61.07C198.022 60.79 199.022 60.65 200.062 60.65ZM200.842 69.23C198.842 69.31 197.452 69.63 196.672 70.19C195.912 70.75 195.532 71.54 195.532 72.56C195.532 73.46 195.802 74.12 196.342 74.54C196.902 74.96 197.612 75.17 198.472 75.17C199.832 75.17 200.962 74.8 201.862 74.06C202.762 73.3 203.212 72.14 203.212 70.58V69.14L200.842 69.23ZM229.292 60.92H232.172L225.302 68.66L232.742 77H229.682L222.422 68.84V77H219.782V60.92H222.422V68.72L229.292 60.92ZM233.141 60.92H235.961L239.441 70.07C239.641 70.61 239.821 71.13 239.981 71.63C240.161 72.13 240.321 72.62 240.461 73.1C240.601 73.56 240.711 74.01 240.791 74.45H240.911C241.031 73.95 241.221 73.3 241.481 72.5C241.741 71.68 242.011 70.86 242.291 70.04L245.561 60.92H248.411L241.481 79.22C241.101 80.22 240.651 81.09 240.131 81.83C239.631 82.59 239.011 83.17 238.271 83.57C237.551 83.99 236.671 84.2 235.631 84.2C235.151 84.2 234.731 84.17 234.371 84.11C234.011 84.07 233.701 84.02 233.441 83.96V81.86C233.661 81.9 233.921 81.94 234.221 81.98C234.541 82.02 234.871 82.04 235.211 82.04C235.831 82.04 236.361 81.92 236.801 81.68C237.261 81.46 237.651 81.13 237.971 80.69C238.291 80.27 238.561 79.77 238.781 79.19L239.621 77.06L233.141 60.92ZM258.604 60.62C260.584 60.62 262.174 61.31 263.374 62.69C264.594 64.07 265.204 66.15 265.204 68.93C265.204 70.75 264.924 72.29 264.364 73.55C263.824 74.79 263.054 75.73 262.054 76.37C261.074 76.99 259.914 77.3 258.574 77.3C257.754 77.3 257.024 77.19 256.384 76.97C255.744 76.75 255.194 76.47 254.734 76.13C254.294 75.77 253.914 75.38 253.594 74.96H253.414C253.454 75.3 253.494 75.73 253.534 76.25C253.574 76.77 253.594 77.22 253.594 77.6V84.2H250.954V60.92H253.114L253.474 63.11H253.594C253.914 62.65 254.294 62.23 254.734 61.85C255.194 61.47 255.734 61.17 256.354 60.95C256.994 60.73 257.744 60.62 258.604 60.62ZM258.124 62.84C257.044 62.84 256.174 63.05 255.514 63.47C254.854 63.87 254.374 64.48 254.074 65.3C253.774 66.12 253.614 67.16 253.594 68.42V68.93C253.594 70.25 253.734 71.37 254.014 72.29C254.294 73.21 254.764 73.91 255.424 74.39C256.104 74.87 257.024 75.11 258.184 75.11C259.164 75.11 259.964 74.84 260.584 74.3C261.224 73.76 261.694 73.03 261.994 72.11C262.314 71.17 262.474 70.1 262.474 68.9C262.474 67.06 262.114 65.59 261.394 64.49C260.694 63.39 259.604 62.84 258.124 62.84ZM270.401 77H267.341L271.931 70.25C271.311 70.09 270.711 69.84 270.131 69.5C269.551 69.14 269.081 68.65 268.721 68.03C268.361 67.39 268.181 66.6 268.181 65.66C268.181 64.12 268.701 62.95 269.741 62.15C270.781 61.33 272.161 60.92 273.881 60.92H281.081V77H278.441V70.61H274.541L270.401 77ZM270.731 65.69C270.731 66.61 271.071 67.3 271.751 67.76C272.451 68.2 273.421 68.42 274.661 68.42H278.441V63.11H274.151C272.931 63.11 272.051 63.35 271.511 63.83C270.991 64.31 270.731 64.93 270.731 65.69ZM307.949 60.92V74.81H310.289V82.55H307.649V77H286.169V60.92H288.809V74.78H295.739V60.92H298.379V74.78H305.339V60.92H307.949ZM315.847 70.73C315.847 70.91 315.837 71.17 315.817 71.51C315.817 71.83 315.807 72.18 315.787 72.56C315.767 72.92 315.747 73.27 315.727 73.61C315.707 73.93 315.687 74.19 315.667 74.39L324.277 60.92H327.517V77H325.057V67.52C325.057 67.2 325.057 66.78 325.057 66.26C325.077 65.74 325.097 65.23 325.117 64.73C325.137 64.21 325.157 63.82 325.177 63.56L316.627 77H313.357V60.92H315.847V70.73ZM336.444 68.78L330.894 60.92H333.894L338.034 66.98L342.144 60.92H345.114L339.564 68.78L345.414 77H342.414L338.034 70.58L333.594 77H330.624L336.444 68.78ZM369.447 60.92V74.78H371.787V82.58H369.237V77H358.047V82.58H355.527V74.78H356.817C357.737 73.5 358.497 72.11 359.097 70.61C359.717 69.09 360.177 67.51 360.477 65.87C360.797 64.21 360.967 62.56 360.987 60.92H369.447ZM363.327 62.99C363.247 64.35 363.037 65.76 362.697 67.22C362.357 68.66 361.917 70.04 361.377 71.36C360.857 72.68 360.247 73.82 359.547 74.78H366.897V62.99H363.327ZM381.149 60.62C382.529 60.62 383.709 60.92 384.689 61.52C385.689 62.12 386.449 62.97 386.969 64.07C387.509 65.15 387.779 66.42 387.779 67.88V69.47H376.769C376.809 71.29 377.269 72.68 378.149 73.64C379.049 74.58 380.299 75.05 381.899 75.05C382.919 75.05 383.819 74.96 384.599 74.78C385.399 74.58 386.219 74.3 387.059 73.94V76.25C386.239 76.61 385.429 76.87 384.629 77.03C383.829 77.21 382.879 77.3 381.779 77.3C380.259 77.3 378.909 76.99 377.729 76.37C376.569 75.75 375.659 74.83 374.999 73.61C374.359 72.37 374.039 70.86 374.039 69.08C374.039 67.32 374.329 65.81 374.909 64.55C375.509 63.29 376.339 62.32 377.399 61.64C378.479 60.96 379.729 60.62 381.149 60.62ZM381.119 62.78C379.859 62.78 378.859 63.19 378.119 64.01C377.399 64.81 376.969 65.93 376.829 67.37H385.019C385.019 66.45 384.879 65.65 384.599 64.97C384.319 64.29 383.889 63.76 383.309 63.38C382.749 62.98 382.019 62.78 381.119 62.78ZM402.972 63.14H397.722V77H395.112V63.14H389.922V60.92H402.972V63.14ZM412.057 60.62C413.437 60.62 414.617 60.92 415.597 61.52C416.597 62.12 417.357 62.97 417.877 64.07C418.417 65.15 418.687 66.42 418.687 67.88V69.47H407.677C407.717 71.29 408.177 72.68 409.057 73.64C409.957 74.58 411.207 75.05 412.807 75.05C413.827 75.05 414.727 74.96 415.507 74.78C416.307 74.58 417.127 74.3 417.967 73.94V76.25C417.147 76.61 416.337 76.87 415.537 77.03C414.737 77.21 413.787 77.3 412.687 77.3C411.167 77.3 409.817 76.99 408.637 76.37C407.477 75.75 406.567 74.83 405.907 73.61C405.267 72.37 404.947 70.86 404.947 69.08C404.947 67.32 405.237 65.81 405.817 64.55C406.417 63.29 407.247 62.32 408.307 61.64C409.387 60.96 410.637 60.62 412.057 60.62ZM412.027 62.78C410.767 62.78 409.767 63.19 409.027 64.01C408.307 64.81 407.877 65.93 407.737 67.37H415.927C415.927 66.45 415.787 65.65 415.507 64.97C415.227 64.29 414.797 63.76 414.217 63.38C413.657 62.98 412.927 62.78 412.027 62.78ZM435.8 54.26C435.72 55.26 435.47 56.1 435.05 56.78C434.65 57.46 434.05 57.97 433.25 58.31C432.45 58.65 431.41 58.82 430.13 58.82C428.83 58.82 427.78 58.65 426.98 58.31C426.2 57.97 425.63 57.47 425.27 56.81C424.91 56.13 424.69 55.28 424.61 54.26H427.07C427.17 55.34 427.45 56.07 427.91 56.45C428.39 56.81 429.15 56.99 430.19 56.99C431.11 56.99 431.83 56.8 432.35 56.42C432.89 56.02 433.21 55.3 433.31 54.26H435.8ZM425.27 70.73C425.27 70.91 425.26 71.17 425.24 71.51C425.24 71.83 425.23 72.18 425.21 72.56C425.19 72.92 425.17 73.27 425.15 73.61C425.13 73.93 425.11 74.19 425.09 74.39L433.7 60.92H436.94V77H434.48V67.52C434.48 67.2 434.48 66.78 434.48 66.26C434.5 65.74 434.52 65.23 434.54 64.73C434.56 64.21 434.58 63.82 434.6 63.56L426.05 77H422.78V60.92H425.27V70.73Z" fill="white"/>
<path d="M254.437 179.814C267.187 190.484 277.409 203.828 284.371 218.89C291.332 233.952 294.861 250.36 294.706 266.94L185.579 265.972C184.009 265.959 183.167 264.121 184.181 262.922L254.437 179.814Z" fill="white"/>
<path d="M231.582 232.879V246.671H234.229V248.45H226.399V246.671H229.58V235.437L226.599 237.684L225.509 236.193L230.114 232.879H231.582ZM246.611 245.136V248.45H244.609V245.136H237.958V243.534L242.607 232.723L244.342 233.457L240.138 243.312H244.609V238.885H246.611V243.312H248.458V245.136H246.611ZM254.299 248.495L264.02 231.989L265.355 232.834L255.634 249.34L254.299 248.495ZM258.326 237.55C258.326 239.092 257.999 240.294 257.347 241.154C256.694 242.014 255.745 242.444 254.5 242.444C253.254 242.444 252.312 242.021 251.674 241.176C251.037 240.316 250.718 239.107 250.718 237.55C250.718 236.008 251.044 234.821 251.697 233.991C252.349 233.146 253.291 232.723 254.522 232.723C255.753 232.723 256.694 233.146 257.347 233.991C257.999 234.821 258.326 236.008 258.326 237.55ZM256.479 237.55C256.479 236.438 256.309 235.6 255.968 235.036C255.627 234.473 255.137 234.191 254.5 234.191C253.892 234.191 253.417 234.443 253.076 234.947C252.735 235.437 252.564 236.304 252.564 237.55C252.564 238.662 252.735 239.508 253.076 240.086C253.417 240.664 253.899 240.954 254.522 240.954C254.833 240.954 255.108 240.894 255.345 240.776C255.597 240.657 255.805 240.464 255.968 240.197C256.131 239.93 256.257 239.582 256.346 239.152C256.435 238.722 256.479 238.188 256.479 237.55ZM269.048 243.69C269.048 245.232 268.722 246.433 268.069 247.293C267.417 248.154 266.467 248.584 265.222 248.584C263.976 248.584 263.034 248.161 262.397 247.316C261.759 246.456 261.44 245.247 261.44 243.69C261.44 242.147 261.766 240.961 262.419 240.131C263.071 239.285 264.013 238.863 265.244 238.863C266.475 238.863 267.417 239.285 268.069 240.131C268.722 240.961 269.048 242.147 269.048 243.69ZM267.201 243.69C267.201 242.578 267.031 241.74 266.69 241.176C266.349 240.613 265.859 240.331 265.222 240.331C264.614 240.331 264.139 240.583 263.798 241.087C263.457 241.576 263.286 242.444 263.286 243.69C263.286 244.802 263.457 245.647 263.798 246.226C264.139 246.804 264.621 247.093 265.244 247.093C265.555 247.093 265.83 247.034 266.067 246.915C266.319 246.797 266.527 246.604 266.69 246.337C266.853 246.07 266.979 245.721 267.068 245.291C267.157 244.861 267.201 244.327 267.201 243.69Z" fill="black"/>
<rect x="330.895" y="169.618" width="27.8063" height="27.8063" rx="8.34188" fill="#878787" stroke="#878787" stroke-width="1.85375"/>
<path d="M390.059 190.691H387.656L380.471 182.639V190.691H378.469V174.808H380.471V182.505L387.478 174.808H389.747L382.851 182.527L390.059 190.691ZM390.085 178.768H392.176L394.756 185.553C394.904 185.953 395.038 186.339 395.157 186.71C395.29 187.08 395.409 187.444 395.513 187.8C395.616 188.141 395.698 188.474 395.757 188.801H395.846C395.935 188.43 396.076 187.948 396.269 187.355C396.462 186.747 396.662 186.139 396.869 185.531L399.294 178.768H401.407L396.269 192.338C395.987 193.079 395.653 193.724 395.268 194.273C394.897 194.836 394.437 195.266 393.889 195.563C393.355 195.874 392.702 196.03 391.931 196.03C391.575 196.03 391.264 196.008 390.997 195.963C390.73 195.934 390.5 195.897 390.307 195.852V194.295C390.47 194.325 390.663 194.354 390.886 194.384C391.123 194.414 391.368 194.429 391.62 194.429C392.079 194.429 392.472 194.34 392.799 194.162C393.14 193.998 393.429 193.754 393.666 193.428C393.903 193.116 394.104 192.745 394.267 192.315L394.89 190.736L390.085 178.768ZM408.966 178.546C410.434 178.546 411.613 179.057 412.502 180.081C413.407 181.104 413.859 182.646 413.859 184.707C413.859 186.057 413.652 187.199 413.237 188.133C412.836 189.053 412.265 189.75 411.524 190.224C410.797 190.684 409.937 190.914 408.943 190.914C408.335 190.914 407.794 190.832 407.319 190.669C406.845 190.506 406.437 190.298 406.096 190.046C405.77 189.779 405.488 189.49 405.251 189.179H405.117C405.147 189.431 405.176 189.75 405.206 190.135C405.236 190.521 405.251 190.855 405.251 191.136V196.03H403.293V178.768H404.895L405.162 180.392H405.251C405.488 180.051 405.77 179.739 406.096 179.458C406.437 179.176 406.837 178.953 407.297 178.79C407.772 178.627 408.328 178.546 408.966 178.546ZM408.61 180.192C407.809 180.192 407.164 180.347 406.674 180.659C406.185 180.956 405.829 181.408 405.607 182.016C405.384 182.624 405.265 183.395 405.251 184.329V184.707C405.251 185.686 405.354 186.517 405.562 187.199C405.77 187.881 406.118 188.4 406.608 188.756C407.112 189.112 407.794 189.29 408.654 189.29C409.381 189.29 409.974 189.09 410.434 188.689C410.908 188.289 411.257 187.748 411.479 187.065C411.716 186.368 411.835 185.575 411.835 184.685C411.835 183.321 411.568 182.231 411.034 181.415C410.515 180.6 409.707 180.192 408.61 180.192ZM417.713 190.691H415.444L418.848 185.686C418.388 185.568 417.943 185.382 417.513 185.13C417.083 184.863 416.734 184.5 416.467 184.04C416.2 183.566 416.067 182.98 416.067 182.283C416.067 181.141 416.452 180.273 417.224 179.68C417.995 179.072 419.018 178.768 420.293 178.768H425.632V190.691H423.675V185.953H420.783L417.713 190.691ZM417.958 182.305C417.958 182.987 418.21 183.499 418.714 183.84C419.233 184.166 419.952 184.329 420.872 184.329H423.675V180.392H420.494C419.589 180.392 418.937 180.57 418.536 180.926C418.151 181.282 417.958 181.741 417.958 182.305ZM445.555 178.768V189.068H447.29V194.807H445.332V190.691H429.405V178.768H431.362V189.045H436.501V178.768H438.459V189.045H443.619V178.768H445.555ZM451.411 186.042C451.411 186.176 451.403 186.368 451.389 186.621C451.389 186.858 451.381 187.117 451.366 187.399C451.351 187.666 451.337 187.926 451.322 188.178C451.307 188.415 451.292 188.608 451.277 188.756L457.662 178.768H460.064V190.691H458.24V183.662C458.24 183.425 458.24 183.113 458.24 182.728C458.255 182.342 458.27 181.964 458.284 181.593C458.299 181.208 458.314 180.918 458.329 180.726L451.989 190.691H449.564V178.768H451.411V186.042ZM468.463 178.546C469.487 178.546 470.362 178.768 471.088 179.213C471.83 179.658 472.393 180.288 472.779 181.104C473.179 181.905 473.379 182.846 473.379 183.929V185.108H465.216C465.245 186.457 465.586 187.488 466.239 188.2C466.906 188.897 467.833 189.245 469.019 189.245C469.776 189.245 470.443 189.179 471.021 189.045C471.615 188.897 472.223 188.689 472.846 188.422V190.135C472.238 190.402 471.637 190.595 471.044 190.714C470.451 190.847 469.746 190.914 468.93 190.914C467.803 190.914 466.802 190.684 465.927 190.224C465.067 189.765 464.392 189.082 463.903 188.178C463.428 187.258 463.191 186.139 463.191 184.819C463.191 183.514 463.406 182.394 463.836 181.46C464.281 180.525 464.897 179.806 465.683 179.302C466.483 178.798 467.41 178.546 468.463 178.546ZM468.441 180.147C467.507 180.147 466.765 180.451 466.217 181.059C465.683 181.653 465.364 182.483 465.26 183.551H471.333C471.333 182.869 471.229 182.275 471.021 181.771C470.814 181.267 470.495 180.874 470.065 180.592C469.65 180.296 469.108 180.147 468.441 180.147Z" fill="white"/>
<rect x="330.895" y="219.669" width="27.8063" height="27.8063" rx="8.34188" fill="white" stroke="white" stroke-width="1.85375"/>
<path d="M390.304 241H388.301V233.592H380.16V241H378.158V225.117H380.16V231.835H388.301V225.117H390.304V241ZM398.984 228.854C400.007 228.854 400.882 229.077 401.609 229.522C402.35 229.966 402.914 230.597 403.299 231.412C403.7 232.213 403.9 233.155 403.9 234.238V235.417H395.736C395.766 236.766 396.107 237.797 396.759 238.509C397.427 239.206 398.354 239.554 399.54 239.554C400.296 239.554 400.964 239.487 401.542 239.354C402.135 239.206 402.743 238.998 403.366 238.731V240.444C402.758 240.711 402.157 240.904 401.564 241.022C400.971 241.156 400.267 241.222 399.451 241.222C398.324 241.222 397.323 240.993 396.448 240.533C395.588 240.073 394.913 239.391 394.424 238.486C393.949 237.567 393.712 236.447 393.712 235.127C393.712 233.822 393.927 232.703 394.357 231.768C394.802 230.834 395.417 230.115 396.203 229.611C397.004 229.106 397.931 228.854 398.984 228.854ZM398.962 230.456C398.027 230.456 397.286 230.76 396.737 231.368C396.203 231.961 395.884 232.792 395.781 233.859H401.853C401.853 233.177 401.75 232.584 401.542 232.08C401.334 231.576 401.015 231.183 400.585 230.901C400.17 230.604 399.629 230.456 398.962 230.456ZM420.656 229.077H422.792L417.698 234.816L423.214 241H420.945L415.562 234.949V241H413.604V229.077H415.562V234.86L420.656 229.077ZM423.51 229.077H425.601L428.182 235.861C428.33 236.262 428.463 236.647 428.582 237.018C428.715 237.389 428.834 237.752 428.938 238.108C429.042 238.449 429.123 238.783 429.183 239.109H429.272C429.361 238.738 429.501 238.256 429.694 237.663C429.887 237.055 430.087 236.447 430.295 235.839L432.72 229.077H434.833L429.694 242.646C429.412 243.388 429.079 244.033 428.693 244.581C428.322 245.145 427.863 245.575 427.314 245.872C426.78 246.183 426.128 246.339 425.356 246.339C425.001 246.339 424.689 246.317 424.422 246.272C424.155 246.242 423.925 246.205 423.733 246.161V244.604C423.896 244.633 424.088 244.663 424.311 244.693C424.548 244.722 424.793 244.737 425.045 244.737C425.505 244.737 425.898 244.648 426.224 244.47C426.565 244.307 426.854 244.062 427.092 243.736C427.329 243.425 427.529 243.054 427.692 242.624L428.315 241.044L423.51 229.077ZM442.391 228.854C443.859 228.854 445.038 229.366 445.928 230.389C446.833 231.412 447.285 232.955 447.285 235.016C447.285 236.366 447.077 237.508 446.662 238.442C446.262 239.361 445.691 240.058 444.949 240.533C444.222 240.993 443.362 241.222 442.369 241.222C441.761 241.222 441.219 241.141 440.745 240.978C440.27 240.815 439.862 240.607 439.521 240.355C439.195 240.088 438.913 239.799 438.676 239.487H438.543C438.572 239.739 438.602 240.058 438.632 240.444C438.661 240.829 438.676 241.163 438.676 241.445V246.339H436.718V229.077H438.32L438.587 230.701H438.676C438.913 230.359 439.195 230.048 439.521 229.766C439.862 229.484 440.263 229.262 440.723 229.099C441.197 228.936 441.753 228.854 442.391 228.854ZM442.035 230.5C441.234 230.5 440.589 230.656 440.1 230.968C439.61 231.264 439.254 231.716 439.032 232.324C438.809 232.932 438.691 233.704 438.676 234.638V235.016C438.676 235.995 438.78 236.825 438.987 237.508C439.195 238.19 439.544 238.709 440.033 239.065C440.537 239.421 441.219 239.599 442.079 239.599C442.806 239.599 443.399 239.398 443.859 238.998C444.334 238.598 444.682 238.056 444.905 237.374C445.142 236.677 445.261 235.884 445.261 234.994C445.261 233.629 444.994 232.539 444.46 231.724C443.941 230.908 443.132 230.5 442.035 230.5ZM451.138 241H448.869L452.273 235.995C451.813 235.876 451.368 235.691 450.938 235.439C450.508 235.172 450.16 234.808 449.893 234.349C449.626 233.874 449.492 233.288 449.492 232.591C449.492 231.449 449.878 230.582 450.649 229.989C451.42 229.381 452.443 229.077 453.719 229.077H459.058V241H457.1V236.262H454.208L451.138 241ZM451.383 232.614C451.383 233.296 451.635 233.807 452.139 234.149C452.658 234.475 453.378 234.638 454.297 234.638H457.1V230.701H453.919C453.014 230.701 452.362 230.879 451.961 231.234C451.576 231.59 451.383 232.05 451.383 232.614ZM478.98 229.077V239.376H480.715V245.115H478.758V241H462.83V229.077H464.788V239.354H469.926V229.077H471.884V239.354H477.045V229.077H478.98ZM484.836 236.351C484.836 236.484 484.829 236.677 484.814 236.929C484.814 237.166 484.806 237.426 484.792 237.708C484.777 237.975 484.762 238.234 484.747 238.486C484.732 238.724 484.717 238.916 484.703 239.065L491.087 229.077H493.489V241H491.665V233.971C491.665 233.733 491.665 233.422 491.665 233.036C491.68 232.651 491.695 232.273 491.71 231.902C491.725 231.516 491.74 231.227 491.754 231.034L485.415 241H482.99V229.077H484.836V236.351ZM501.889 228.854C502.912 228.854 503.787 229.077 504.514 229.522C505.255 229.966 505.819 230.597 506.204 231.412C506.605 232.213 506.805 233.155 506.805 234.238V235.417H498.641C498.671 236.766 499.012 237.797 499.664 238.509C500.332 239.206 501.258 239.554 502.445 239.554C503.201 239.554 503.868 239.487 504.447 239.354C505.04 239.206 505.648 238.998 506.271 238.731V240.444C505.663 240.711 505.062 240.904 504.469 241.022C503.876 241.156 503.171 241.222 502.356 241.222C501.229 241.222 500.228 240.993 499.353 240.533C498.493 240.073 497.818 239.391 497.328 238.486C496.854 237.567 496.617 236.447 496.617 235.127C496.617 233.822 496.832 232.703 497.262 231.768C497.707 230.834 498.322 230.115 499.108 229.611C499.909 229.106 500.836 228.854 501.889 228.854ZM501.866 230.456C500.932 230.456 500.191 230.76 499.642 231.368C499.108 231.961 498.789 232.792 498.685 233.859H504.758C504.758 233.177 504.654 232.584 504.447 232.08C504.239 231.576 503.92 231.183 503.49 230.901C503.075 230.604 502.534 230.456 501.866 230.456Z" fill="white"/>
<path d="M266.94 278.989C266.94 304.483 258.255 329.216 242.315 349.111C226.375 369.007 204.133 382.879 179.253 388.44C154.374 394.001 128.342 390.92 105.448 379.705C82.5543 368.489 64.1647 349.809 53.3101 326.741C42.4555 303.674 39.7837 277.597 45.735 252.808C51.6864 228.019 65.9057 205.997 86.0495 190.372C106.193 174.747 131.059 166.451 156.55 166.851C182.04 167.252 206.633 176.325 226.276 192.575L154.788 278.989H266.94Z" fill="#878787"/>
<path d="M84.046 295.676C83.2452 295.246 82.6371 294.749 82.2219 294.186C81.8067 293.607 81.599 292.896 81.599 292.05C81.599 291.487 81.7103 290.975 81.9327 290.515C82.17 290.041 82.4888 289.633 82.8893 289.292C83.3045 288.951 83.7865 288.691 84.3352 288.513C84.8987 288.32 85.4993 288.224 86.137 288.224C86.8192 288.224 87.4421 288.32 88.0056 288.513C88.584 288.706 89.0734 288.98 89.4738 289.336C89.889 289.677 90.2079 290.078 90.4303 290.538C90.6676 290.997 90.7862 291.494 90.7862 292.028C90.7862 292.933 90.5564 293.667 90.0966 294.23C89.6369 294.794 89.0215 295.268 88.2503 295.654C89.3477 296.128 90.1856 296.707 90.764 297.389C91.3424 298.056 91.6315 298.879 91.6315 299.858C91.6315 300.526 91.4981 301.141 91.2311 301.705C90.9642 302.253 90.5934 302.72 90.1189 303.106C89.6443 303.492 89.0808 303.796 88.4283 304.018C87.7757 304.226 87.0713 304.329 86.315 304.329C85.4697 304.329 84.6985 304.218 84.0015 303.996C83.3193 303.773 82.741 303.469 82.2664 303.084C81.7918 302.683 81.4211 302.224 81.1541 301.705C80.902 301.171 80.776 300.6 80.776 299.992C80.776 299.013 81.0355 298.175 81.5546 297.478C82.0736 296.766 82.9041 296.166 84.046 295.676ZM89.585 299.903C89.585 299.191 89.2662 298.553 88.6285 297.99C88.0056 297.426 87.1381 296.944 86.0258 296.544C85.5957 296.647 85.1879 296.796 84.8023 296.989C84.4167 297.167 84.0757 297.389 83.7791 297.656C83.4973 297.908 83.2674 298.205 83.0895 298.546C82.9115 298.872 82.8225 299.235 82.8225 299.636C82.8225 300.051 82.9115 300.437 83.0895 300.792C83.2674 301.148 83.5121 301.46 83.8235 301.727C84.135 301.979 84.5057 302.179 84.9358 302.327C85.3659 302.476 85.833 302.55 86.3372 302.55C87.2864 302.55 88.0649 302.305 88.673 301.816C89.281 301.326 89.585 300.689 89.585 299.903ZM83.5344 292.006C83.5344 292.658 83.7939 293.244 84.3129 293.763C84.832 294.267 85.5364 294.653 86.4262 294.92C86.7525 294.816 87.0565 294.675 87.3383 294.497C87.6349 294.319 87.8944 294.119 88.1168 293.897C88.3393 293.674 88.5172 293.422 88.6507 293.14C88.7842 292.858 88.8509 292.554 88.8509 292.228C88.8509 291.887 88.7768 291.576 88.6285 291.294C88.495 290.997 88.3022 290.745 88.0501 290.538C87.8128 290.33 87.531 290.167 87.2048 290.048C86.8785 289.93 86.5226 289.87 86.137 289.87C85.3807 289.87 84.7578 290.07 84.2684 290.471C83.7791 290.856 83.5344 291.368 83.5344 292.006ZM102.434 290.271C100.803 290.271 99.4679 290.767 98.4298 291.761C97.3917 292.74 96.754 294.089 96.5168 295.81C96.932 295.409 97.4585 295.046 98.0962 294.72C98.7487 294.379 99.4976 294.208 100.343 294.208C100.966 294.208 101.537 294.319 102.056 294.542C102.59 294.764 103.049 295.076 103.435 295.476C103.821 295.876 104.125 296.366 104.347 296.944C104.569 297.508 104.681 298.145 104.681 298.857C104.681 299.673 104.555 300.422 104.303 301.104C104.05 301.771 103.702 302.342 103.257 302.817C102.812 303.291 102.278 303.662 101.655 303.929C101.032 304.196 100.358 304.329 99.6311 304.329C98.9192 304.329 98.2445 304.203 97.6068 303.951C96.9839 303.684 96.4352 303.284 95.9606 302.75C95.4861 302.201 95.1079 301.512 94.8261 300.681C94.5592 299.851 94.4257 298.872 94.4257 297.745C94.4257 296.484 94.5963 295.291 94.9374 294.163C95.2785 293.036 95.7827 292.05 96.45 291.205C97.1174 290.36 97.9479 289.692 98.9415 289.203C99.9351 288.699 101.092 288.447 102.412 288.447C102.545 288.447 102.686 288.454 102.834 288.469C102.997 288.469 103.138 288.476 103.257 288.491V290.315C103.138 290.3 103.005 290.293 102.857 290.293C102.708 290.278 102.567 290.271 102.434 290.271ZM99.8313 295.876C99.1787 295.876 98.5633 296.032 97.9849 296.343C97.4214 296.655 96.9172 297.07 96.4723 297.589V298.079C96.4871 298.776 96.5761 299.398 96.7392 299.947C96.9172 300.496 97.147 300.963 97.4288 301.349C97.7254 301.719 98.0665 302.009 98.4521 302.216C98.8525 302.409 99.2751 302.505 99.72 302.505C100.165 302.505 100.565 302.424 100.921 302.261C101.292 302.083 101.603 301.845 101.856 301.549C102.122 301.237 102.323 300.874 102.456 300.459C102.604 300.044 102.679 299.591 102.679 299.102C102.679 298.138 102.419 297.359 101.9 296.766C101.381 296.173 100.691 295.876 99.8313 295.876ZM110.634 304.107L120.355 287.601L121.689 288.447L111.968 304.952L110.634 304.107ZM114.66 293.162C114.66 294.705 114.334 295.906 113.681 296.766C113.029 297.626 112.08 298.056 110.834 298.056C109.588 298.056 108.646 297.634 108.009 296.788C107.371 295.928 107.052 294.72 107.052 293.162C107.052 291.62 107.378 290.434 108.031 289.603C108.684 288.758 109.625 288.335 110.856 288.335C112.087 288.335 113.029 288.758 113.681 289.603C114.334 290.434 114.66 291.62 114.66 293.162ZM112.814 293.162C112.814 292.05 112.643 291.212 112.302 290.649C111.961 290.085 111.472 289.803 110.834 289.803C110.226 289.803 109.751 290.056 109.41 290.56C109.069 291.049 108.899 291.917 108.899 293.162C108.899 294.275 109.069 295.12 109.41 295.698C109.751 296.277 110.233 296.566 110.856 296.566C111.168 296.566 111.442 296.507 111.679 296.388C111.931 296.269 112.139 296.077 112.302 295.81C112.465 295.543 112.591 295.194 112.68 294.764C112.769 294.334 112.814 293.8 112.814 293.162ZM125.382 299.302C125.382 300.844 125.056 302.046 124.403 302.906C123.751 303.766 122.802 304.196 121.556 304.196C120.31 304.196 119.369 303.773 118.731 302.928C118.093 302.068 117.774 300.859 117.774 299.302C117.774 297.76 118.101 296.573 118.753 295.743C119.406 294.898 120.347 294.475 121.578 294.475C122.809 294.475 123.751 294.898 124.403 295.743C125.056 296.573 125.382 297.76 125.382 299.302ZM123.536 299.302C123.536 298.19 123.365 297.352 123.024 296.788C122.683 296.225 122.194 295.943 121.556 295.943C120.948 295.943 120.473 296.195 120.132 296.699C119.791 297.189 119.621 298.056 119.621 299.302C119.621 300.414 119.791 301.26 120.132 301.838C120.473 302.416 120.955 302.706 121.578 302.706C121.89 302.706 122.164 302.646 122.401 302.528C122.653 302.409 122.861 302.216 123.024 301.949C123.187 301.682 123.313 301.334 123.402 300.904C123.491 300.474 123.536 299.94 123.536 299.302Z" fill="#FDFDFF"/>
</svg>
