<svg width="707" height="449" viewBox="0 0 707 449" fill="none" xmlns="http://www.w3.org/2000/svg">
<rect x="1.50158" y="0.926875" width="704.425" height="446.754" rx="23.1719" fill="#404040" stroke="#EBEBEB" stroke-width="1.85375"/>
<rect x="402.839" y="176.106" width="259.525" height="18.5375" rx="9.26875" fill="#7E7E7E"/>
<rect x="403" y="176" width="73" height="19" rx="9.5" fill="white"/>
<path d="M416.586 155.324H414.184L406.998 147.271V155.324H404.996V139.441H406.998V147.138L414.006 139.441H416.275L409.379 147.16L416.586 155.324ZM420.327 150.675C420.327 150.808 420.319 151.001 420.305 151.253C420.305 151.49 420.297 151.75 420.282 152.031C420.268 152.298 420.253 152.558 420.238 152.81C420.223 153.047 420.208 153.24 420.193 153.388L426.578 143.4H428.98V155.324H427.156V148.294C427.156 148.057 427.156 147.746 427.156 147.36C427.171 146.974 427.186 146.596 427.201 146.226C427.215 145.84 427.23 145.551 427.245 145.358L420.905 155.324H418.481V143.4H420.327V150.675ZM441.005 145.047H437.112V155.324H435.177V145.047H431.329V143.4H441.005V145.047ZM447.87 143.2C449.323 143.2 450.398 143.519 451.095 144.157C451.792 144.794 452.141 145.81 452.141 147.204V155.324H450.717L450.339 153.633H450.25C449.909 154.063 449.553 154.427 449.182 154.723C448.826 155.005 448.411 155.213 447.937 155.346C447.477 155.479 446.913 155.546 446.246 155.546C445.534 155.546 444.889 155.42 444.311 155.168C443.747 154.916 443.302 154.53 442.976 154.011C442.65 153.477 442.487 152.81 442.487 152.009C442.487 150.823 442.954 149.911 443.888 149.273C444.822 148.621 446.261 148.265 448.203 148.205L450.228 148.139V147.427C450.228 146.433 450.013 145.744 449.583 145.358C449.153 144.972 448.545 144.78 447.759 144.78C447.136 144.78 446.543 144.876 445.979 145.069C445.415 145.247 444.889 145.454 444.4 145.692L443.799 144.223C444.318 143.942 444.933 143.704 445.645 143.512C446.357 143.304 447.099 143.2 447.87 143.2ZM448.448 149.562C446.965 149.622 445.935 149.859 445.356 150.274C444.793 150.689 444.511 151.275 444.511 152.031C444.511 152.699 444.711 153.188 445.111 153.5C445.527 153.811 446.053 153.967 446.691 153.967C447.699 153.967 448.537 153.692 449.205 153.144C449.872 152.58 450.206 151.72 450.206 150.563V149.496L448.448 149.562ZM465.478 138.462C465.418 139.204 465.233 139.826 464.922 140.331C464.625 140.835 464.18 141.213 463.587 141.465C462.994 141.717 462.223 141.843 461.273 141.843C460.31 141.843 459.531 141.717 458.938 141.465C458.359 141.213 457.937 140.842 457.67 140.353C457.403 139.849 457.24 139.218 457.18 138.462H459.004C459.079 139.263 459.286 139.804 459.627 140.086C459.983 140.353 460.547 140.486 461.318 140.486C462 140.486 462.534 140.345 462.92 140.064C463.32 139.767 463.557 139.233 463.631 138.462H465.478ZM457.67 150.675C457.67 150.808 457.662 151.001 457.648 151.253C457.648 151.49 457.64 151.75 457.625 152.031C457.61 152.298 457.596 152.558 457.581 152.81C457.566 153.047 457.551 153.24 457.536 153.388L463.921 143.4H466.323V155.324H464.499V148.294C464.499 148.057 464.499 147.746 464.499 147.36C464.514 146.974 464.529 146.596 464.543 146.226C464.558 145.84 464.573 145.551 464.588 145.358L458.248 155.324H455.823V143.4H457.67V150.675Z" fill="white"/>
<path d="M617.615 155.324C617.571 155.057 617.549 154.782 617.549 154.501C617.549 153.552 617.719 152.691 618.06 151.92C618.416 151.149 618.854 150.452 619.373 149.829C619.892 149.192 620.448 148.606 621.041 148.072C621.649 147.523 622.213 147.004 622.732 146.515C623.251 146.01 623.681 145.514 624.022 145.024C624.378 144.52 624.556 143.986 624.556 143.423C624.556 142.8 624.326 142.288 623.866 141.888C623.407 141.473 622.813 141.265 622.087 141.265C621.464 141.265 620.893 141.391 620.374 141.643C619.87 141.88 619.395 142.207 618.95 142.622L617.838 141.265C618.431 140.731 619.084 140.301 619.795 139.975C620.522 139.648 621.36 139.485 622.309 139.485C622.962 139.485 623.555 139.582 624.089 139.774C624.637 139.967 625.097 140.242 625.468 140.598C625.854 140.939 626.15 141.339 626.358 141.799C626.565 142.258 626.669 142.755 626.669 143.289C626.669 144.001 626.506 144.661 626.18 145.269C625.868 145.862 625.468 146.433 624.979 146.982C624.504 147.516 623.978 148.035 623.399 148.539C622.836 149.028 622.302 149.533 621.798 150.052C621.293 150.571 620.848 151.112 620.463 151.676C620.092 152.239 619.87 152.847 619.795 153.5H626.647V155.324H617.615ZM633.334 155.324C633.334 153.618 633.445 152.106 633.668 150.786C633.905 149.466 634.239 148.265 634.669 147.182C635.114 146.099 635.662 145.113 636.315 144.223C636.967 143.319 637.716 142.436 638.562 141.576H631.065V139.752H640.942V141.354C639.919 142.347 639.066 143.311 638.384 144.246C637.701 145.18 637.153 146.181 636.737 147.249C636.322 148.317 636.026 149.503 635.848 150.808C635.67 152.098 635.581 153.603 635.581 155.324H633.334ZM646.761 155.368L656.482 138.862L657.817 139.708L648.096 156.214L646.761 155.368ZM650.788 144.424C650.788 145.966 650.461 147.167 649.809 148.027C649.156 148.888 648.207 149.318 646.961 149.318C645.716 149.318 644.774 148.895 644.136 148.05C643.499 147.189 643.18 145.981 643.18 144.424C643.18 142.881 643.506 141.695 644.159 140.864C644.811 140.019 645.753 139.597 646.984 139.597C648.215 139.597 649.156 140.019 649.809 140.864C650.461 141.695 650.788 142.881 650.788 144.424ZM648.941 144.424C648.941 143.311 648.771 142.474 648.43 141.91C648.089 141.346 647.599 141.065 646.961 141.065C646.353 141.065 645.879 141.317 645.538 141.821C645.197 142.31 645.026 143.178 645.026 144.424C645.026 145.536 645.197 146.381 645.538 146.96C645.879 147.538 646.361 147.827 646.984 147.827C647.295 147.827 647.57 147.768 647.807 147.649C648.059 147.531 648.267 147.338 648.43 147.071C648.593 146.804 648.719 146.455 648.808 146.025C648.897 145.595 648.941 145.061 648.941 144.424ZM661.51 150.563C661.51 152.106 661.183 153.307 660.531 154.167C659.878 155.027 658.929 155.457 657.684 155.457C656.438 155.457 655.496 155.035 654.858 154.189C654.221 153.329 653.902 152.12 653.902 150.563C653.902 149.021 654.228 147.835 654.881 147.004C655.533 146.159 656.475 145.736 657.706 145.736C658.937 145.736 659.878 146.159 660.531 147.004C661.183 147.835 661.51 149.021 661.51 150.563ZM659.663 150.563C659.663 149.451 659.493 148.613 659.152 148.05C658.811 147.486 658.321 147.204 657.684 147.204C657.076 147.204 656.601 147.456 656.26 147.961C655.919 148.45 655.748 149.318 655.748 150.563C655.748 151.676 655.919 152.521 656.26 153.099C656.601 153.678 657.083 153.967 657.706 153.967C658.017 153.967 658.292 153.907 658.529 153.789C658.781 153.67 658.989 153.477 659.152 153.21C659.315 152.944 659.441 152.595 659.53 152.165C659.619 151.735 659.663 151.201 659.663 150.563Z" fill="white"/>
<rect x="46.9184" y="278.063" width="259.525" height="18.5375" rx="9.26875" fill="#7E7E7E"/>
<rect x="47" y="278" width="71" height="19" rx="9.5" fill="white"/>
<path d="M55.7275 250.911C55.2529 251.964 54.7709 252.846 54.2815 253.558C53.807 254.255 53.2434 254.781 52.5909 255.137C51.9384 255.478 51.1079 255.649 50.0995 255.649C49.6842 255.649 49.2912 255.619 48.9205 255.56C48.5646 255.501 48.2383 255.419 47.9417 255.315V253.335C48.2383 253.469 48.5571 253.58 48.8982 253.669C49.2393 253.743 49.5952 253.78 49.966 253.78C50.5147 253.78 50.9818 253.706 51.3674 253.558C51.7678 253.395 52.1163 253.135 52.4129 252.779C52.7244 252.423 53.0136 251.949 53.2805 251.356L47.1631 239.544H49.3654L53.7921 248.286C53.8515 248.39 53.9108 248.516 53.9701 248.664C54.0294 248.798 54.0887 248.938 54.1481 249.087C54.2222 249.235 54.2815 249.376 54.326 249.509H54.415C54.4595 249.406 54.504 249.287 54.5485 249.153C54.6078 249.005 54.6597 248.864 54.7042 248.731C54.7635 248.582 54.8154 248.456 54.8599 248.353L58.686 239.544H60.7993L55.7275 250.911ZM69.7423 243.503H71.8778L66.7837 249.242L72.3005 255.427H70.0315L64.6482 249.376V255.427H62.6907V243.503H64.6482V249.287L69.7423 243.503ZM80.1374 243.281C81.6055 243.281 82.7845 243.792 83.6743 244.816C84.5789 245.839 85.0313 247.381 85.0313 249.443C85.0313 250.792 84.8236 251.934 84.4084 252.868C84.008 253.788 83.437 254.485 82.6955 254.959C81.9689 255.419 81.1087 255.649 80.1151 255.649C79.5071 255.649 78.9658 255.567 78.4912 255.404C78.0167 255.241 77.6088 255.034 77.2677 254.781C76.9415 254.514 76.6597 254.225 76.4224 253.914H76.289C76.3186 254.166 76.3483 254.485 76.3779 254.87C76.4076 255.256 76.4224 255.59 76.4224 255.871V260.765H74.4649V243.503H76.0665L76.3335 245.127H76.4224C76.6597 244.786 76.9415 244.475 77.2677 244.193C77.6088 243.911 78.0092 243.689 78.469 243.525C78.9435 243.362 79.4997 243.281 80.1374 243.281ZM79.7814 244.927C78.9806 244.927 78.3355 245.083 77.8461 245.394C77.3567 245.691 77.0008 246.143 76.7784 246.751C76.5559 247.359 76.4373 248.13 76.4224 249.064V249.443C76.4224 250.421 76.5262 251.252 76.7339 251.934C76.9415 252.616 77.29 253.135 77.7794 253.491C78.2836 253.847 78.9658 254.025 79.8259 254.025C80.5526 254.025 81.1458 253.825 81.6055 253.424C82.0801 253.024 82.4286 252.483 82.651 251.801C82.8883 251.104 83.007 250.31 83.007 249.42C83.007 248.056 82.74 246.966 82.2061 246.15C81.6871 245.335 80.8789 244.927 79.7814 244.927ZM92.6665 243.303C94.1198 243.303 95.195 243.622 95.892 244.26C96.589 244.897 96.9375 245.913 96.9375 247.307V255.427H95.5139L95.1357 253.736H95.0467C94.7056 254.166 94.3497 254.529 93.979 254.826C93.623 255.108 93.2078 255.315 92.7332 255.449C92.2735 255.582 91.71 255.649 91.0426 255.649C90.3308 255.649 89.6857 255.523 89.1073 255.271C88.5438 255.019 88.0989 254.633 87.7726 254.114C87.4463 253.58 87.2832 252.913 87.2832 252.112C87.2832 250.926 87.7504 250.014 88.6846 249.376C89.6189 248.723 91.0574 248.367 93.0002 248.308L95.0245 248.241V247.53C95.0245 246.536 94.8094 245.846 94.3794 245.461C93.9493 245.075 93.3413 244.882 92.5553 244.882C91.9324 244.882 91.3392 244.979 90.7757 245.172C90.2121 245.35 89.6857 245.557 89.1963 245.794L88.5957 244.326C89.1147 244.044 89.7302 243.807 90.442 243.614C91.1538 243.407 91.8953 243.303 92.6665 243.303ZM93.2449 249.665C91.7619 249.724 90.7312 249.962 90.1528 250.377C89.5893 250.792 89.3075 251.378 89.3075 252.134C89.3075 252.802 89.5077 253.291 89.9081 253.602C90.3234 253.914 90.8498 254.07 91.4875 254.07C92.496 254.07 93.3339 253.795 94.0012 253.247C94.6686 252.683 95.0022 251.823 95.0022 250.666V249.598L93.2449 249.665ZM102.466 250.777C102.466 250.911 102.459 251.104 102.444 251.356C102.444 251.593 102.437 251.852 102.422 252.134C102.407 252.401 102.392 252.661 102.377 252.913C102.363 253.15 102.348 253.343 102.333 253.491L108.717 243.503H111.12V255.427H109.296V248.397C109.296 248.16 109.296 247.848 109.296 247.463C109.311 247.077 109.325 246.699 109.34 246.328C109.355 245.943 109.37 245.654 109.385 245.461L103.045 255.427H100.62V243.503H102.466V250.777ZM116.872 243.503V248.464H123.345V243.503H125.303V255.427H123.345V250.11H116.872V255.427H114.914V243.503H116.872ZM133.594 243.303C135.047 243.303 136.122 243.622 136.819 244.26C137.516 244.897 137.865 245.913 137.865 247.307V255.427H136.441L136.063 253.736H135.974C135.633 254.166 135.277 254.529 134.906 254.826C134.55 255.108 134.135 255.315 133.661 255.449C133.201 255.582 132.637 255.649 131.97 255.649C131.258 255.649 130.613 255.523 130.035 255.271C129.471 255.019 129.026 254.633 128.7 254.114C128.374 253.58 128.211 252.913 128.211 252.112C128.211 250.926 128.678 250.014 129.612 249.376C130.546 248.723 131.985 248.367 133.928 248.308L135.952 248.241V247.53C135.952 246.536 135.737 245.846 135.307 245.461C134.877 245.075 134.269 244.882 133.483 244.882C132.86 244.882 132.267 244.979 131.703 245.172C131.139 245.35 130.613 245.557 130.124 245.794L129.523 244.326C130.042 244.044 130.658 243.807 131.369 243.614C132.081 243.407 132.823 243.303 133.594 243.303ZM134.172 249.665C132.689 249.724 131.659 249.962 131.08 250.377C130.517 250.792 130.235 251.378 130.235 252.134C130.235 252.802 130.435 253.291 130.835 253.602C131.251 253.914 131.777 254.07 132.415 254.07C133.423 254.07 134.261 253.795 134.929 253.247C135.596 252.683 135.93 251.823 135.93 250.666V249.598L134.172 249.665Z" fill="white"/>
<path d="M261.695 255.427C261.651 255.16 261.629 254.885 261.629 254.603C261.629 253.654 261.799 252.794 262.14 252.023C262.496 251.252 262.934 250.555 263.453 249.932C263.972 249.294 264.528 248.709 265.121 248.175C265.729 247.626 266.293 247.107 266.812 246.617C267.331 246.113 267.761 245.616 268.102 245.127C268.458 244.623 268.636 244.089 268.636 243.525C268.636 242.903 268.406 242.391 267.946 241.991C267.486 241.575 266.893 241.368 266.167 241.368C265.544 241.368 264.973 241.494 264.454 241.746C263.95 241.983 263.475 242.309 263.03 242.725L261.918 241.368C262.511 240.834 263.164 240.404 263.875 240.077C264.602 239.751 265.44 239.588 266.389 239.588C267.042 239.588 267.635 239.684 268.169 239.877C268.717 240.07 269.177 240.344 269.548 240.7C269.933 241.041 270.23 241.442 270.438 241.902C270.645 242.361 270.749 242.858 270.749 243.392C270.749 244.104 270.586 244.764 270.26 245.372C269.948 245.965 269.548 246.536 269.058 247.085C268.584 247.619 268.057 248.138 267.479 248.642C266.916 249.131 266.382 249.635 265.877 250.154C265.373 250.673 264.928 251.215 264.543 251.778C264.172 252.342 263.95 252.95 263.875 253.602H270.727V255.427H261.695ZM284.532 250.599C284.532 251.341 284.399 252.023 284.132 252.646C283.88 253.269 283.509 253.81 283.02 254.27C282.545 254.715 281.974 255.063 281.307 255.315C280.639 255.567 279.898 255.693 279.082 255.693C278.163 255.693 277.377 255.597 276.724 255.404C276.087 255.197 275.501 254.907 274.967 254.537L276.012 252.824C276.428 253.12 276.887 253.373 277.392 253.58C277.896 253.773 278.467 253.869 279.104 253.869C279.594 253.869 280.039 253.795 280.439 253.647C280.854 253.499 281.203 253.291 281.485 253.024C281.781 252.742 282.011 252.416 282.174 252.045C282.337 251.675 282.419 251.267 282.419 250.822C282.419 249.888 282.1 249.131 281.462 248.553C280.84 247.974 279.942 247.685 278.771 247.685H276.012V239.855H283.709V241.657H277.903V245.883H279.016C279.876 245.883 280.647 246.002 281.329 246.239C282.011 246.462 282.59 246.788 283.064 247.218C283.539 247.633 283.902 248.13 284.154 248.709C284.406 249.287 284.532 249.917 284.532 250.599ZM290.841 255.471L300.562 238.965L301.897 239.811L292.176 256.316L290.841 255.471ZM294.868 244.526C294.868 246.069 294.541 247.27 293.889 248.13C293.236 248.99 292.287 249.42 291.041 249.42C289.796 249.42 288.854 248.998 288.216 248.152C287.579 247.292 287.26 246.084 287.26 244.526C287.26 242.984 287.586 241.798 288.239 240.967C288.891 240.122 289.833 239.699 291.064 239.699C292.295 239.699 293.236 240.122 293.889 240.967C294.541 241.798 294.868 242.984 294.868 244.526ZM293.021 244.526C293.021 243.414 292.851 242.576 292.51 242.013C292.168 241.449 291.679 241.167 291.041 241.167C290.433 241.167 289.959 241.42 289.618 241.924C289.277 242.413 289.106 243.281 289.106 244.526C289.106 245.639 289.277 246.484 289.618 247.062C289.959 247.641 290.441 247.93 291.064 247.93C291.375 247.93 291.649 247.871 291.887 247.752C292.139 247.633 292.346 247.441 292.51 247.174C292.673 246.907 292.799 246.558 292.888 246.128C292.977 245.698 293.021 245.164 293.021 244.526ZM305.59 250.666C305.59 252.208 305.263 253.41 304.611 254.27C303.958 255.13 303.009 255.56 301.763 255.56C300.518 255.56 299.576 255.137 298.938 254.292C298.301 253.432 297.982 252.223 297.982 250.666C297.982 249.124 298.308 247.937 298.961 247.107C299.613 246.262 300.555 245.839 301.786 245.839C303.017 245.839 303.958 246.262 304.611 247.107C305.263 247.937 305.59 249.124 305.59 250.666ZM303.743 250.666C303.743 249.554 303.573 248.716 303.232 248.152C302.891 247.589 302.401 247.307 301.763 247.307C301.155 247.307 300.681 247.559 300.34 248.063C299.999 248.553 299.828 249.42 299.828 250.666C299.828 251.778 299.999 252.624 300.34 253.202C300.681 253.78 301.163 254.07 301.786 254.07C302.097 254.07 302.372 254.01 302.609 253.892C302.861 253.773 303.069 253.58 303.232 253.313C303.395 253.046 303.521 252.698 303.61 252.268C303.699 251.838 303.743 251.304 303.743 250.666Z" fill="white"/>
<rect x="46.9184" y="177.96" width="259.525" height="18.5375" rx="9.26875" fill="#7E7E7E"/>
<rect x="47" y="178" width="100" height="18" rx="9" fill="white"/>
<path d="M53.2805 139.441C55.3567 139.441 56.8694 139.849 57.8185 140.664C58.7676 141.48 59.2422 142.629 59.2422 144.112C59.2422 144.765 59.1309 145.395 58.9085 146.003C58.7009 146.596 58.3524 147.13 57.863 147.605C57.3736 148.079 56.7211 148.457 55.9054 148.739C55.0898 149.006 54.0887 149.14 52.9023 149.14H51.0782V155.324H49.0762V139.441H53.2805ZM53.1025 141.154H51.0782V147.427H52.6799C53.6883 147.427 54.5262 147.323 55.1936 147.115C55.8609 146.893 56.3577 146.544 56.684 146.07C57.0102 145.595 57.1734 144.972 57.1734 144.201C57.1734 143.178 56.8471 142.414 56.1946 141.91C55.5421 141.406 54.5114 141.154 53.1025 141.154ZM72.6441 149.34C72.6441 150.333 72.5106 151.216 72.2437 151.987C71.9916 152.743 71.6208 153.388 71.1314 153.922C70.6569 154.456 70.0711 154.864 69.3741 155.146C68.6919 155.413 67.9281 155.546 67.0828 155.546C66.2968 155.546 65.5702 155.413 64.9028 155.146C64.2355 154.864 63.6571 154.456 63.1677 153.922C62.6783 153.388 62.2927 152.743 62.011 151.987C61.744 151.216 61.6106 150.333 61.6106 149.34C61.6106 148.02 61.833 146.908 62.2779 146.003C62.7228 145.084 63.3605 144.387 64.191 143.912C65.0215 143.423 66.0077 143.178 67.1496 143.178C68.2322 143.178 69.1813 143.423 69.9969 143.912C70.8274 144.387 71.4725 145.084 71.9322 146.003C72.4068 146.908 72.6441 148.02 72.6441 149.34ZM63.6349 149.34C63.6349 150.274 63.7535 151.09 63.9908 151.787C64.2429 152.469 64.6285 152.995 65.1475 153.366C65.6666 153.737 66.3265 153.922 67.1273 153.922C67.9281 153.922 68.5881 153.737 69.1071 153.366C69.6262 152.995 70.0043 152.469 70.2416 151.787C70.4937 151.09 70.6198 150.274 70.6198 149.34C70.6198 148.391 70.4937 147.582 70.2416 146.915C69.9895 146.248 69.6039 145.736 69.0849 145.38C68.5807 145.009 67.9207 144.824 67.1051 144.824C65.889 144.824 65.0066 145.224 64.4579 146.025C63.9092 146.826 63.6349 147.931 63.6349 149.34ZM80.5292 155.546C79.4763 155.546 78.5346 155.331 77.7041 154.901C76.8885 154.471 76.2434 153.804 75.7688 152.899C75.3091 151.994 75.0792 150.838 75.0792 149.429C75.0792 147.961 75.3239 146.767 75.8133 145.847C76.3027 144.928 76.9626 144.253 77.7931 143.823C78.6384 143.393 79.595 143.178 80.6627 143.178C81.2707 143.178 81.8565 143.245 82.4201 143.378C82.9836 143.497 83.4433 143.645 83.7993 143.823L83.1986 145.447C82.8427 145.313 82.4275 145.187 81.9529 145.069C81.4784 144.95 81.0335 144.891 80.6182 144.891C79.8174 144.891 79.1575 145.061 78.6384 145.402C78.1194 145.744 77.7338 146.248 77.4817 146.915C77.2296 147.582 77.1035 148.413 77.1035 149.407C77.1035 150.356 77.2296 151.164 77.4817 151.831C77.7338 152.499 78.112 153.003 78.6162 153.344C79.1204 153.685 79.7507 153.856 80.507 153.856C81.1595 153.856 81.7305 153.789 82.2199 153.655C82.7241 153.522 83.1838 153.359 83.5991 153.166V154.901C83.1986 155.109 82.7537 155.264 82.2644 155.368C81.7898 155.487 81.2114 155.546 80.5292 155.546ZM91.2173 155.546C90.1643 155.546 89.2226 155.331 88.3922 154.901C87.5765 154.471 86.9314 153.804 86.4568 152.899C85.9971 151.994 85.7672 150.838 85.7672 149.429C85.7672 147.961 86.0119 146.767 86.5013 145.847C86.9907 144.928 87.6507 144.253 88.4811 143.823C89.3265 143.393 90.283 143.178 91.3507 143.178C91.9588 143.178 92.5446 143.245 93.1081 143.378C93.6716 143.497 94.1314 143.645 94.4873 143.823L93.8867 145.447C93.5308 145.313 93.1155 145.187 92.641 145.069C92.1664 144.95 91.7215 144.891 91.3063 144.891C90.5054 144.891 89.8455 145.061 89.3265 145.402C88.8074 145.744 88.4218 146.248 88.1697 146.915C87.9176 147.582 87.7915 148.413 87.7915 149.407C87.7915 150.356 87.9176 151.164 88.1697 151.831C88.4218 152.499 88.8 153.003 89.3042 153.344C89.8084 153.685 90.4387 153.856 91.195 153.856C91.8476 153.856 92.4185 153.789 92.9079 153.655C93.4121 153.522 93.8718 153.359 94.2871 153.166V154.901C93.8867 155.109 93.4418 155.264 92.9524 155.368C92.4778 155.487 91.8995 155.546 91.2173 155.546ZM98.969 150.675C98.969 150.808 98.9616 151.001 98.9467 151.253C98.9467 151.49 98.9393 151.75 98.9245 152.031C98.9096 152.298 98.8948 152.558 98.88 152.81C98.8652 153.047 98.8503 153.24 98.8355 153.388L105.22 143.4H107.622V155.324H105.798V148.294C105.798 148.057 105.798 147.746 105.798 147.36C105.813 146.974 105.828 146.596 105.843 146.226C105.858 145.84 105.872 145.551 105.887 145.358L99.5473 155.324H97.1226V143.4H98.969V150.675ZM112.151 155.324H109.882L113.285 150.319C112.826 150.2 112.381 150.015 111.951 149.762C111.521 149.496 111.172 149.132 110.905 148.672C110.638 148.198 110.505 147.612 110.505 146.915C110.505 145.773 110.89 144.906 111.661 144.312C112.433 143.704 113.456 143.4 114.731 143.4H120.07V155.324H118.113V150.586H115.221L112.151 155.324ZM112.396 146.937C112.396 147.62 112.648 148.131 113.152 148.472C113.671 148.799 114.39 148.962 115.31 148.962H118.113V145.024H114.931C114.027 145.024 113.374 145.202 112.974 145.558C112.588 145.914 112.396 146.374 112.396 146.937Z" fill="white"/>
<path d="M265.499 155.591C264.52 155.591 263.675 155.465 262.963 155.213C262.266 154.946 261.666 154.627 261.161 154.256L262.074 152.588C262.489 152.899 262.963 153.173 263.497 153.411C264.046 153.648 264.721 153.767 265.521 153.767C266.5 153.767 267.271 153.514 267.835 153.01C268.413 152.491 268.703 151.839 268.703 151.053C268.703 150.652 268.621 150.267 268.458 149.896C268.295 149.525 268.035 149.206 267.679 148.939C267.338 148.658 266.901 148.435 266.367 148.272C265.848 148.109 265.225 148.027 264.498 148.027H263.252V146.403H264.409C265.062 146.403 265.633 146.329 266.122 146.181C266.611 146.018 267.012 145.803 267.323 145.536C267.65 145.269 267.887 144.972 268.035 144.646C268.198 144.305 268.28 143.957 268.28 143.601C268.28 142.904 268.013 142.34 267.479 141.91C266.96 141.48 266.315 141.265 265.544 141.265C264.832 141.265 264.209 141.384 263.675 141.621C263.141 141.843 262.704 142.095 262.363 142.377L261.54 140.798C261.985 140.501 262.555 140.212 263.252 139.93C263.95 139.634 264.765 139.485 265.699 139.485C266.426 139.485 267.071 139.589 267.635 139.797C268.213 140.004 268.695 140.286 269.081 140.642C269.481 140.998 269.785 141.413 269.993 141.888C270.2 142.347 270.304 142.829 270.304 143.334C270.304 144.223 270.082 144.965 269.637 145.558C269.207 146.137 268.591 146.619 267.79 147.004C268.725 147.36 269.451 147.879 269.97 148.561C270.504 149.243 270.771 150.052 270.771 150.986C270.771 151.564 270.66 152.135 270.438 152.699C270.23 153.248 269.911 153.737 269.481 154.167C269.051 154.597 268.502 154.946 267.835 155.213C267.168 155.465 266.389 155.591 265.499 155.591ZM278.838 155.591C277.859 155.591 277.013 155.465 276.302 155.213C275.605 154.946 275.004 154.627 274.5 154.256L275.412 152.588C275.827 152.899 276.302 153.173 276.836 153.411C277.384 153.648 278.059 153.767 278.86 153.767C279.839 153.767 280.61 153.514 281.173 153.01C281.752 152.491 282.041 151.839 282.041 151.053C282.041 150.652 281.959 150.267 281.796 149.896C281.633 149.525 281.373 149.206 281.018 148.939C280.676 148.658 280.239 148.435 279.705 148.272C279.186 148.109 278.563 148.027 277.837 148.027H276.591V146.403H277.748C278.4 146.403 278.971 146.329 279.46 146.181C279.95 146.018 280.35 145.803 280.662 145.536C280.988 145.269 281.225 144.972 281.373 144.646C281.537 144.305 281.618 143.957 281.618 143.601C281.618 142.904 281.351 142.34 280.817 141.91C280.298 141.48 279.653 141.265 278.882 141.265C278.17 141.265 277.547 141.384 277.013 141.621C276.48 141.843 276.042 142.095 275.701 142.377L274.878 140.798C275.323 140.501 275.894 140.212 276.591 139.93C277.288 139.634 278.103 139.485 279.038 139.485C279.764 139.485 280.41 139.589 280.973 139.797C281.551 140.004 282.033 140.286 282.419 140.642C282.819 140.998 283.123 141.413 283.331 141.888C283.539 142.347 283.642 142.829 283.642 143.334C283.642 144.223 283.42 144.965 282.975 145.558C282.545 146.137 281.93 146.619 281.129 147.004C282.063 147.36 282.79 147.879 283.309 148.561C283.843 149.243 284.11 150.052 284.11 150.986C284.11 151.564 283.998 152.135 283.776 152.699C283.568 153.248 283.249 153.737 282.819 154.167C282.389 154.597 281.841 154.946 281.173 155.213C280.506 155.465 279.727 155.591 278.838 155.591ZM290.841 155.368L300.562 138.862L301.897 139.708L292.176 156.214L290.841 155.368ZM294.868 144.424C294.868 145.966 294.541 147.167 293.889 148.027C293.236 148.888 292.287 149.318 291.041 149.318C289.796 149.318 288.854 148.895 288.216 148.05C287.579 147.189 287.26 145.981 287.26 144.424C287.26 142.881 287.586 141.695 288.239 140.864C288.891 140.019 289.833 139.597 291.064 139.597C292.295 139.597 293.236 140.019 293.889 140.864C294.541 141.695 294.868 142.881 294.868 144.424ZM293.021 144.424C293.021 143.311 292.851 142.474 292.51 141.91C292.168 141.346 291.679 141.065 291.041 141.065C290.433 141.065 289.959 141.317 289.618 141.821C289.277 142.31 289.106 143.178 289.106 144.424C289.106 145.536 289.277 146.381 289.618 146.96C289.959 147.538 290.441 147.827 291.064 147.827C291.375 147.827 291.649 147.768 291.887 147.649C292.139 147.531 292.346 147.338 292.51 147.071C292.673 146.804 292.799 146.455 292.888 146.025C292.977 145.595 293.021 145.061 293.021 144.424ZM305.59 150.563C305.59 152.106 305.263 153.307 304.611 154.167C303.958 155.027 303.009 155.457 301.763 155.457C300.518 155.457 299.576 155.035 298.938 154.189C298.301 153.329 297.982 152.12 297.982 150.563C297.982 149.021 298.308 147.835 298.961 147.004C299.613 146.159 300.555 145.736 301.786 145.736C303.017 145.736 303.958 146.159 304.611 147.004C305.263 147.835 305.59 149.021 305.59 150.563ZM303.743 150.563C303.743 149.451 303.573 148.613 303.232 148.05C302.891 147.486 302.401 147.204 301.763 147.204C301.155 147.204 300.681 147.456 300.34 147.961C299.999 148.45 299.828 149.318 299.828 150.563C299.828 151.676 299.999 152.521 300.34 153.099C300.681 153.678 301.163 153.967 301.786 153.967C302.097 153.967 302.372 153.907 302.609 153.789C302.861 153.67 303.069 153.477 303.232 153.21C303.395 152.944 303.521 152.595 303.61 152.165C303.699 151.735 303.743 151.201 303.743 150.563Z" fill="white"/>
<rect x="402.839" y="276.209" width="259.525" height="18.5375" rx="9.26875" fill="#7E7E7E"/>
<rect x="403" y="276" width="55" height="19" rx="9.5" fill="white"/>
<path d="M411.803 239.225C410.958 239.225 410.194 239.373 409.512 239.67C408.83 239.951 408.252 240.374 407.777 240.938C407.302 241.486 406.939 242.161 406.687 242.962C406.435 243.748 406.309 244.638 406.309 245.631C406.309 246.936 406.509 248.071 406.909 249.035C407.325 249.999 407.933 250.74 408.733 251.259C409.549 251.778 410.565 252.038 411.781 252.038C412.478 252.038 413.138 251.979 413.761 251.86C414.384 251.741 414.992 251.593 415.585 251.415V253.15C414.992 253.373 414.376 253.536 413.739 253.639C413.116 253.743 412.367 253.795 411.492 253.795C409.875 253.795 408.526 253.462 407.443 252.794C406.361 252.127 405.545 251.178 404.996 249.947C404.462 248.716 404.196 247.27 404.196 245.609C404.196 244.408 404.359 243.31 404.685 242.317C405.026 241.323 405.515 240.463 406.153 239.736C406.806 239.01 407.606 238.454 408.556 238.068C409.505 237.668 410.595 237.467 411.826 237.467C412.641 237.467 413.427 237.549 414.184 237.712C414.94 237.875 415.615 238.105 416.208 238.402L415.407 240.092C414.918 239.87 414.369 239.67 413.761 239.492C413.168 239.314 412.515 239.225 411.803 239.225ZM437.782 253.573H419.052V237.69H421.054V251.793H427.393V237.69H429.395V251.793H435.758V237.69H437.782V253.573ZM452.088 253.573L450.175 248.657H443.879L441.989 253.573H439.964L446.171 237.623H447.972L454.157 253.573H452.088ZM447.795 242.072C447.75 241.953 447.676 241.738 447.572 241.427C447.468 241.116 447.364 240.797 447.261 240.47C447.172 240.129 447.097 239.87 447.038 239.692C446.964 239.988 446.882 240.292 446.793 240.604C446.719 240.901 446.638 241.175 446.549 241.427C446.475 241.679 446.408 241.894 446.349 242.072L444.547 246.877H449.574L447.795 242.072Z" fill="white"/>
<path d="M624.044 238.001V251.793H626.691V253.573H618.861V251.793H622.042V240.559L619.061 242.806L617.971 241.316L622.576 238.001H624.044ZM638.561 239.781C636.93 239.781 635.595 240.278 634.557 241.271C633.519 242.25 632.882 243.6 632.644 245.32C633.06 244.919 633.586 244.556 634.224 244.23C634.876 243.889 635.625 243.718 636.47 243.718C637.093 243.718 637.664 243.829 638.183 244.052C638.717 244.274 639.177 244.586 639.563 244.986C639.948 245.387 640.252 245.876 640.475 246.454C640.697 247.018 640.808 247.656 640.808 248.367C640.808 249.183 640.682 249.932 640.43 250.614C640.178 251.282 639.829 251.852 639.385 252.327C638.94 252.802 638.406 253.172 637.783 253.439C637.16 253.706 636.485 253.84 635.759 253.84C635.047 253.84 634.372 253.714 633.734 253.462C633.111 253.195 632.563 252.794 632.088 252.26C631.614 251.712 631.235 251.022 630.954 250.192C630.687 249.361 630.553 248.382 630.553 247.255C630.553 245.995 630.724 244.801 631.065 243.674C631.406 242.547 631.91 241.56 632.578 240.715C633.245 239.87 634.075 239.202 635.069 238.713C636.063 238.209 637.219 237.957 638.539 237.957C638.673 237.957 638.814 237.964 638.962 237.979C639.125 237.979 639.266 237.986 639.385 238.001V239.825C639.266 239.811 639.132 239.803 638.984 239.803C638.836 239.788 638.695 239.781 638.561 239.781ZM635.959 245.387C635.306 245.387 634.691 245.542 634.112 245.854C633.549 246.165 633.045 246.58 632.6 247.099V247.589C632.615 248.286 632.704 248.909 632.867 249.457C633.045 250.006 633.275 250.473 633.556 250.859C633.853 251.23 634.194 251.519 634.58 251.726C634.98 251.919 635.403 252.016 635.848 252.016C636.293 252.016 636.693 251.934 637.049 251.771C637.42 251.593 637.731 251.356 637.983 251.059C638.25 250.748 638.45 250.384 638.584 249.969C638.732 249.554 638.806 249.102 638.806 248.612C638.806 247.648 638.547 246.87 638.028 246.276C637.509 245.683 636.819 245.387 635.959 245.387ZM646.761 253.617L656.482 237.111L657.817 237.957L648.096 254.463L646.761 253.617ZM650.788 242.673C650.788 244.215 650.461 245.416 649.809 246.276C649.156 247.137 648.207 247.567 646.961 247.567C645.716 247.567 644.774 247.144 644.136 246.299C643.499 245.438 643.18 244.23 643.18 242.673C643.18 241.13 643.506 239.944 644.159 239.113C644.811 238.268 645.753 237.846 646.984 237.846C648.215 237.846 649.156 238.268 649.809 239.113C650.461 239.944 650.788 241.13 650.788 242.673ZM648.941 242.673C648.941 241.56 648.771 240.723 648.43 240.159C648.088 239.595 647.599 239.314 646.961 239.314C646.353 239.314 645.879 239.566 645.538 240.07C645.197 240.559 645.026 241.427 645.026 242.673C645.026 243.785 645.197 244.63 645.538 245.209C645.879 245.787 646.361 246.076 646.984 246.076C647.295 246.076 647.569 246.017 647.807 245.898C648.059 245.78 648.266 245.587 648.43 245.32C648.593 245.053 648.719 244.704 648.808 244.274C648.897 243.844 648.941 243.31 648.941 242.673ZM661.51 248.812C661.51 250.355 661.183 251.556 660.531 252.416C659.878 253.276 658.929 253.706 657.684 253.706C656.438 253.706 655.496 253.284 654.858 252.438C654.221 251.578 653.902 250.369 653.902 248.812C653.902 247.27 654.228 246.084 654.881 245.253C655.533 244.408 656.475 243.985 657.706 243.985C658.937 243.985 659.878 244.408 660.531 245.253C661.183 246.084 661.51 247.27 661.51 248.812ZM659.663 248.812C659.663 247.7 659.493 246.862 659.152 246.299C658.811 245.735 658.321 245.453 657.684 245.453C657.075 245.453 656.601 245.705 656.26 246.21C655.919 246.699 655.748 247.567 655.748 248.812C655.748 249.925 655.919 250.77 656.26 251.348C656.601 251.927 657.083 252.216 657.706 252.216C658.017 252.216 658.292 252.156 658.529 252.038C658.781 251.919 658.989 251.726 659.152 251.459C659.315 251.193 659.441 250.844 659.53 250.414C659.619 249.984 659.663 249.45 659.663 248.812Z" fill="white"/>
<rect x="46.9184" y="376.311" width="259.525" height="18.5375" rx="9.26875" fill="#7E7E7E"/>
<rect x="47" y="376" width="106" height="19" rx="9.5" fill="white"/>
<path d="M58.0409 339.646V341.425H51.0782V355.529H49.0762V339.646H58.0409ZM65.0394 343.383C66.5076 343.383 67.6866 343.895 68.5764 344.918C69.481 345.941 69.9333 347.484 69.9333 349.545C69.9333 350.894 69.7257 352.036 69.3105 352.971C68.9101 353.89 68.3391 354.587 67.5976 355.062C66.8709 355.521 66.0108 355.751 65.0172 355.751C64.4091 355.751 63.8678 355.67 63.3933 355.507C62.9187 355.343 62.5109 355.136 62.1698 354.884C61.8436 354.617 61.5618 354.328 61.3245 354.016H61.191C61.2207 354.268 61.2504 354.587 61.28 354.973C61.3097 355.358 61.3245 355.692 61.3245 355.974V360.868H59.3669V343.605H60.9686L61.2355 345.229H61.3245C61.5618 344.888 61.8436 344.577 62.1698 344.295C62.5109 344.013 62.9113 343.791 63.371 343.628C63.8456 343.465 64.4017 343.383 65.0394 343.383ZM64.6835 345.029C63.8827 345.029 63.2376 345.185 62.7482 345.496C62.2588 345.793 61.9029 346.245 61.6804 346.853C61.458 347.461 61.3393 348.232 61.3245 349.167V349.545C61.3245 350.524 61.4283 351.354 61.6359 352.036C61.8436 352.719 62.1921 353.238 62.6814 353.593C63.1857 353.949 63.8678 354.127 64.728 354.127C65.4547 354.127 66.0479 353.927 66.5076 353.527C66.9822 353.126 67.3307 352.585 67.5531 351.903C67.7904 351.206 67.909 350.412 67.909 349.523C67.909 348.158 67.6421 347.068 67.1082 346.253C66.5892 345.437 65.7809 345.029 64.6835 345.029ZM77.6576 343.383C78.6808 343.383 79.5558 343.605 80.2825 344.05C81.024 344.495 81.5875 345.126 81.9731 345.941C82.3735 346.742 82.5737 347.684 82.5737 348.766V349.945H74.4098C74.4394 351.295 74.7805 352.326 75.4331 353.037C76.1004 353.734 77.0273 354.083 78.2137 354.083C78.97 354.083 79.6374 354.016 80.2157 353.883C80.8089 353.734 81.417 353.527 82.0398 353.26V354.973C81.4318 355.24 80.8312 355.432 80.238 355.551C79.6448 355.685 78.9403 355.751 78.1247 355.751C76.9976 355.751 75.9966 355.521 75.1216 355.062C74.2615 354.602 73.5867 353.92 73.0973 353.015C72.6228 352.096 72.3855 350.976 72.3855 349.656C72.3855 348.351 72.6005 347.231 73.0306 346.297C73.4755 345.363 74.0909 344.644 74.8769 344.139C75.6777 343.635 76.6046 343.383 77.6576 343.383ZM77.6353 344.985C76.701 344.985 75.9595 345.289 75.4108 345.897C74.8769 346.49 74.5581 347.32 74.4543 348.388H80.5272C80.5272 347.706 80.4233 347.113 80.2157 346.609C80.0081 346.104 79.6893 345.711 79.2592 345.43C78.844 345.133 78.3027 344.985 77.6353 344.985ZM97.3767 359.666H95.4636V355.529H85.6091V343.605H87.5667V353.883H93.7285V343.605H95.6861V353.905H97.3767V359.666ZM101.511 350.88C101.511 351.013 101.503 351.206 101.488 351.458C101.488 351.695 101.481 351.955 101.466 352.237C101.451 352.503 101.436 352.763 101.422 353.015C101.407 353.252 101.392 353.445 101.377 353.593L107.761 343.605H110.164V355.529H108.34V348.499C108.34 348.262 108.34 347.951 108.34 347.565C108.355 347.18 108.37 346.801 108.384 346.431C108.399 346.045 108.414 345.756 108.429 345.563L102.089 355.529H99.6643V343.605H101.511V350.88ZM114.693 355.529H112.424L115.827 350.524C115.367 350.405 114.922 350.22 114.492 349.968C114.062 349.701 113.714 349.337 113.447 348.878C113.18 348.403 113.046 347.817 113.046 347.12C113.046 345.978 113.432 345.111 114.203 344.518C114.974 343.909 115.998 343.605 117.273 343.605H122.612V355.529H120.654V350.791H117.762L114.693 355.529ZM114.937 347.142C114.937 347.825 115.189 348.336 115.694 348.677C116.213 349.004 116.932 349.167 117.851 349.167H120.654V345.229H117.473C116.569 345.229 115.916 345.407 115.516 345.763C115.13 346.119 114.937 346.579 114.937 347.142Z" fill="white"/>
<path d="M265.499 355.796C264.52 355.796 263.675 355.67 262.963 355.418C262.266 355.151 261.666 354.832 261.161 354.461L262.074 352.793C262.489 353.104 262.963 353.378 263.497 353.616C264.046 353.853 264.721 353.972 265.521 353.972C266.5 353.972 267.271 353.72 267.835 353.215C268.413 352.696 268.703 352.044 268.703 351.258C268.703 350.857 268.621 350.472 268.458 350.101C268.295 349.73 268.035 349.411 267.679 349.144C267.338 348.863 266.901 348.64 266.367 348.477C265.848 348.314 265.225 348.232 264.498 348.232H263.252V346.609H264.409C265.062 346.609 265.633 346.534 266.122 346.386C266.611 346.223 267.012 346.008 267.323 345.741C267.65 345.474 267.887 345.177 268.035 344.851C268.198 344.51 268.28 344.162 268.28 343.806C268.28 343.109 268.013 342.545 267.479 342.115C266.96 341.685 266.315 341.47 265.544 341.47C264.832 341.47 264.209 341.589 263.675 341.826C263.141 342.048 262.704 342.3 262.363 342.582L261.54 341.003C261.985 340.706 262.555 340.417 263.252 340.135C263.95 339.839 264.765 339.69 265.699 339.69C266.426 339.69 267.071 339.794 267.635 340.002C268.213 340.209 268.695 340.491 269.081 340.847C269.481 341.203 269.785 341.618 269.993 342.093C270.2 342.553 270.304 343.035 270.304 343.539C270.304 344.429 270.082 345.17 269.637 345.763C269.207 346.342 268.591 346.824 267.79 347.209C268.725 347.565 269.451 348.084 269.97 348.766C270.504 349.449 270.771 350.257 270.771 351.191C270.771 351.769 270.66 352.34 270.438 352.904C270.23 353.453 269.911 353.942 269.481 354.372C269.051 354.802 268.502 355.151 267.835 355.418C267.168 355.67 266.389 355.796 265.499 355.796ZM284.532 350.702C284.532 351.443 284.399 352.125 284.132 352.748C283.88 353.371 283.509 353.912 283.02 354.372C282.545 354.817 281.974 355.165 281.307 355.418C280.639 355.67 279.898 355.796 279.082 355.796C278.163 355.796 277.377 355.699 276.724 355.507C276.087 355.299 275.501 355.01 274.967 354.639L276.012 352.926C276.428 353.223 276.887 353.475 277.392 353.682C277.896 353.875 278.467 353.972 279.104 353.972C279.594 353.972 280.039 353.898 280.439 353.749C280.854 353.601 281.203 353.393 281.485 353.126C281.781 352.845 282.011 352.518 282.174 352.148C282.337 351.777 282.419 351.369 282.419 350.924C282.419 349.99 282.1 349.233 281.462 348.655C280.84 348.077 279.942 347.788 278.771 347.788H276.012V339.957H283.709V341.759H277.903V345.986H279.016C279.876 345.986 280.647 346.104 281.329 346.342C282.011 346.564 282.59 346.89 283.064 347.32C283.539 347.736 283.902 348.232 284.154 348.811C284.406 349.389 284.532 350.019 284.532 350.702ZM290.841 355.573L300.562 339.068L301.897 339.913L292.176 356.419L290.841 355.573ZM294.868 344.629C294.868 346.171 294.541 347.372 293.889 348.232C293.236 349.093 292.287 349.523 291.041 349.523C289.796 349.523 288.854 349.1 288.216 348.255C287.579 347.395 287.26 346.186 287.26 344.629C287.26 343.086 287.586 341.9 288.239 341.07C288.891 340.224 289.833 339.802 291.064 339.802C292.295 339.802 293.236 340.224 293.889 341.07C294.541 341.9 294.868 343.086 294.868 344.629ZM293.021 344.629C293.021 343.517 292.851 342.679 292.51 342.115C292.168 341.552 291.679 341.27 291.041 341.27C290.433 341.27 289.959 341.522 289.618 342.026C289.277 342.515 289.106 343.383 289.106 344.629C289.106 345.741 289.277 346.586 289.618 347.165C289.959 347.743 290.441 348.032 291.064 348.032C291.375 348.032 291.649 347.973 291.887 347.854C292.139 347.736 292.346 347.543 292.51 347.276C292.673 347.009 292.799 346.66 292.888 346.23C292.977 345.8 293.021 345.266 293.021 344.629ZM305.59 350.768C305.59 352.311 305.263 353.512 304.611 354.372C303.958 355.232 303.009 355.662 301.763 355.662C300.518 355.662 299.576 355.24 298.938 354.394C298.301 353.534 297.982 352.326 297.982 350.768C297.982 349.226 298.308 348.04 298.961 347.209C299.613 346.364 300.555 345.941 301.786 345.941C303.017 345.941 303.958 346.364 304.611 347.209C305.263 348.04 305.59 349.226 305.59 350.768ZM303.743 350.768C303.743 349.656 303.573 348.818 303.232 348.255C302.891 347.691 302.401 347.409 301.763 347.409C301.155 347.409 300.681 347.661 300.34 348.166C299.999 348.655 299.828 349.523 299.828 350.768C299.828 351.881 299.999 352.726 300.34 353.304C300.681 353.883 301.163 354.172 301.786 354.172C302.097 354.172 302.372 354.113 302.609 353.994C302.861 353.875 303.069 353.682 303.232 353.416C303.395 353.149 303.521 352.8 303.61 352.37C303.699 351.94 303.743 351.406 303.743 350.768Z" fill="white"/>
<rect x="402.839" y="374.458" width="259.525" height="18.5375" rx="9.26875" fill="#7E7E7E"/>
<rect x="402.839" y="374.458" width="65" height="18.5375" rx="9.26875" fill="white"/>
<path d="M404.996 352.675V336.792H414.428V338.549H406.998V343.51H409.356C410.943 343.51 412.174 343.71 413.049 344.111C413.924 344.496 414.532 345.03 414.873 345.712C415.214 346.38 415.385 347.151 415.385 348.026C415.385 348.99 415.192 349.82 414.806 350.517C414.436 351.214 413.828 351.748 412.982 352.119C412.137 352.49 411.025 352.675 409.646 352.675H404.996ZM409.445 350.962C410.869 350.962 411.87 350.725 412.448 350.25C413.027 349.761 413.316 349.019 413.316 348.026C413.316 347.344 413.175 346.802 412.893 346.402C412.626 345.987 412.182 345.69 411.559 345.512C410.951 345.334 410.135 345.245 409.112 345.245H406.998V350.962H409.445ZM423.02 340.529C424.043 340.529 424.918 340.752 425.645 341.197C426.386 341.642 426.95 342.272 427.336 343.087C427.736 343.888 427.936 344.83 427.936 345.913V347.092H419.772C419.802 348.441 420.143 349.472 420.796 350.184C421.463 350.881 422.39 351.229 423.576 351.229C424.333 351.229 425 351.162 425.578 351.029C426.171 350.881 426.779 350.673 427.402 350.406V352.119C426.794 352.386 426.194 352.579 425.6 352.697C425.007 352.831 424.303 352.897 423.487 352.897C422.36 352.897 421.359 352.668 420.484 352.208C419.624 351.748 418.949 351.066 418.46 350.161C417.985 349.242 417.748 348.122 417.748 346.802C417.748 345.497 417.963 344.378 418.393 343.443C418.838 342.509 419.453 341.79 420.239 341.286C421.04 340.781 421.967 340.529 423.02 340.529ZM422.998 342.131C422.064 342.131 421.322 342.435 420.773 343.043C420.239 343.636 419.921 344.467 419.817 345.534H425.89C425.89 344.852 425.786 344.259 425.578 343.755C425.371 343.251 425.052 342.858 424.622 342.576C424.206 342.279 423.665 342.131 422.998 342.131ZM440.048 352.675H438.068V342.376H434.553C434.405 344.259 434.219 345.868 433.997 347.203C433.774 348.523 433.493 349.598 433.152 350.428C432.811 351.259 432.403 351.867 431.928 352.252C431.454 352.638 430.897 352.831 430.26 352.831C430.067 352.831 429.874 352.816 429.681 352.786C429.503 352.771 429.355 352.734 429.236 352.675V351.207C429.325 351.237 429.422 351.259 429.526 351.274C429.629 351.288 429.733 351.296 429.837 351.296C430.163 351.296 430.46 351.162 430.727 350.895C430.994 350.629 431.231 350.221 431.439 349.672C431.661 349.123 431.861 348.434 432.039 347.603C432.217 346.758 432.373 345.764 432.507 344.622C432.64 343.48 432.759 342.19 432.862 340.752H440.048V352.675ZM448.348 340.552C449.801 340.552 450.876 340.87 451.573 341.508C452.27 342.146 452.619 343.162 452.619 344.556V352.675H451.195L450.817 350.984H450.728C450.387 351.414 450.031 351.778 449.66 352.074C449.304 352.356 448.889 352.564 448.414 352.697C447.955 352.831 447.391 352.897 446.724 352.897C446.012 352.897 445.367 352.771 444.789 352.519C444.225 352.267 443.78 351.882 443.454 351.363C443.128 350.829 442.964 350.161 442.964 349.361C442.964 348.174 443.432 347.262 444.366 346.624C445.3 345.972 446.739 345.616 448.681 345.557L450.706 345.49V344.778C450.706 343.784 450.491 343.095 450.061 342.709C449.631 342.324 449.023 342.131 448.237 342.131C447.614 342.131 447.02 342.227 446.457 342.42C445.893 342.598 445.367 342.806 444.878 343.043L444.277 341.575C444.796 341.293 445.411 341.056 446.123 340.863C446.835 340.655 447.577 340.552 448.348 340.552ZM448.926 346.914C447.443 346.973 446.412 347.21 445.834 347.625C445.271 348.041 444.989 348.626 444.989 349.383C444.989 350.05 445.189 350.54 445.589 350.851C446.005 351.162 446.531 351.318 447.169 351.318C448.177 351.318 449.015 351.044 449.682 350.495C450.35 349.931 450.683 349.071 450.683 347.915V346.847L448.926 346.914ZM461.974 340.529C463.442 340.529 464.621 341.041 465.511 342.064C466.415 343.087 466.868 344.63 466.868 346.691C466.868 348.041 466.66 349.183 466.245 350.117C465.844 351.036 465.274 351.733 464.532 352.208C463.805 352.668 462.945 352.897 461.952 352.897C461.344 352.897 460.802 352.816 460.328 352.653C459.853 352.49 459.445 352.282 459.104 352.03C458.778 351.763 458.496 351.474 458.259 351.162H458.125C458.155 351.414 458.185 351.733 458.214 352.119C458.244 352.505 458.259 352.838 458.259 353.12V358.014H456.301V340.752H457.903L458.17 342.376H458.259C458.496 342.035 458.778 341.723 459.104 341.441C459.445 341.16 459.846 340.937 460.305 340.774C460.78 340.611 461.336 340.529 461.974 340.529ZM461.618 342.175C460.817 342.175 460.172 342.331 459.683 342.643C459.193 342.939 458.837 343.391 458.615 343.999C458.392 344.608 458.274 345.379 458.259 346.313V346.691C458.259 347.67 458.363 348.5 458.57 349.183C458.778 349.865 459.126 350.384 459.616 350.74C460.12 351.096 460.802 351.274 461.662 351.274C462.389 351.274 462.982 351.073 463.442 350.673C463.917 350.273 464.265 349.731 464.488 349.049C464.725 348.352 464.843 347.559 464.843 346.669C464.843 345.305 464.577 344.215 464.043 343.399C463.524 342.583 462.715 342.175 461.618 342.175ZM467.901 340.752H469.992L472.573 347.536C472.721 347.937 472.855 348.322 472.973 348.693C473.107 349.064 473.225 349.427 473.329 349.783C473.433 350.124 473.515 350.458 473.574 350.784H473.663C473.752 350.413 473.893 349.931 474.086 349.338C474.278 348.73 474.479 348.122 474.686 347.514L477.111 340.752H479.224L474.086 354.321C473.804 355.063 473.47 355.708 473.085 356.256C472.714 356.82 472.254 357.25 471.705 357.547C471.171 357.858 470.519 358.014 469.748 358.014C469.392 358.014 469.08 357.992 468.813 357.947C468.547 357.917 468.317 357.88 468.124 357.836V356.279C468.287 356.308 468.48 356.338 468.702 356.368C468.94 356.397 469.184 356.412 469.436 356.412C469.896 356.412 470.289 356.323 470.615 356.145C470.956 355.982 471.246 355.737 471.483 355.411C471.72 355.1 471.92 354.729 472.084 354.299L472.706 352.72L467.901 340.752ZM485.892 352.897C484.84 352.897 483.898 352.682 483.067 352.252C482.252 351.822 481.607 351.155 481.132 350.25C480.672 349.346 480.442 348.189 480.442 346.78C480.442 345.312 480.687 344.118 481.177 343.199C481.666 342.279 482.326 341.604 483.156 341.174C484.002 340.744 484.958 340.529 486.026 340.529C486.634 340.529 487.22 340.596 487.783 340.729C488.347 340.848 488.807 340.996 489.162 341.174L488.562 342.798C488.206 342.665 487.791 342.539 487.316 342.42C486.842 342.301 486.397 342.242 485.981 342.242C485.181 342.242 484.521 342.413 484.002 342.754C483.483 343.095 483.097 343.599 482.845 344.266C482.593 344.934 482.467 345.764 482.467 346.758C482.467 347.707 482.593 348.515 482.845 349.183C483.097 349.85 483.475 350.354 483.979 350.695C484.484 351.036 485.114 351.207 485.87 351.207C486.523 351.207 487.094 351.14 487.583 351.007C488.087 350.873 488.547 350.71 488.962 350.517V352.252C488.562 352.46 488.117 352.616 487.628 352.72C487.153 352.838 486.575 352.897 485.892 352.897ZM497.292 345.646C498.33 345.646 499.191 345.772 499.873 346.024C500.555 346.276 501.067 346.654 501.408 347.158C501.764 347.648 501.942 348.271 501.942 349.027C501.942 349.768 501.771 350.413 501.43 350.962C501.104 351.511 500.592 351.934 499.895 352.23C499.198 352.527 498.301 352.675 497.203 352.675H491.798V340.752H493.755V345.646H497.292ZM499.984 349.138C499.984 348.411 499.724 347.922 499.205 347.67C498.701 347.403 497.989 347.27 497.07 347.27H493.755V351.096H497.114C497.945 351.096 498.627 350.947 499.161 350.651C499.71 350.354 499.984 349.85 499.984 349.138Z" fill="white"/>
<path d="M617.615 353.675C617.571 353.408 617.549 353.134 617.549 352.852C617.549 351.903 617.719 351.043 618.06 350.272C618.416 349.5 618.854 348.803 619.373 348.181C619.892 347.543 620.448 346.957 621.041 346.423C621.649 345.874 622.213 345.355 622.732 344.866C623.251 344.362 623.681 343.865 624.022 343.376C624.378 342.871 624.556 342.338 624.556 341.774C624.556 341.151 624.326 340.639 623.866 340.239C623.407 339.824 622.813 339.616 622.087 339.616C621.464 339.616 620.893 339.742 620.374 339.994C619.87 340.232 619.395 340.558 618.95 340.973L617.838 339.616C618.431 339.082 619.084 338.652 619.795 338.326C620.522 338 621.36 337.837 622.309 337.837C622.962 337.837 623.555 337.933 624.089 338.126C624.637 338.319 625.097 338.593 625.468 338.949C625.854 339.29 626.15 339.69 626.358 340.15C626.565 340.61 626.669 341.107 626.669 341.64C626.669 342.352 626.506 343.012 626.18 343.62C625.868 344.214 625.468 344.784 624.979 345.333C624.504 345.867 623.978 346.386 623.399 346.89C622.836 347.38 622.302 347.884 621.798 348.403C621.293 348.922 620.848 349.463 620.463 350.027C620.092 350.59 619.87 351.198 619.795 351.851H626.647V353.675H617.615ZM630.954 353.675C630.909 353.408 630.887 353.134 630.887 352.852C630.887 351.903 631.058 351.043 631.399 350.272C631.755 349.5 632.192 348.803 632.711 348.181C633.23 347.543 633.786 346.957 634.379 346.423C634.988 345.874 635.551 345.355 636.07 344.866C636.589 344.362 637.019 343.865 637.36 343.376C637.716 342.871 637.894 342.338 637.894 341.774C637.894 341.151 637.664 340.639 637.205 340.239C636.745 339.824 636.152 339.616 635.425 339.616C634.802 339.616 634.231 339.742 633.712 339.994C633.208 340.232 632.733 340.558 632.288 340.973L631.176 339.616C631.769 339.082 632.422 338.652 633.134 338.326C633.86 338 634.698 337.837 635.647 337.837C636.3 337.837 636.893 337.933 637.427 338.126C637.976 338.319 638.435 338.593 638.806 338.949C639.192 339.29 639.488 339.69 639.696 340.15C639.904 340.61 640.007 341.107 640.007 341.64C640.007 342.352 639.844 343.012 639.518 343.62C639.207 344.214 638.806 344.784 638.317 345.333C637.842 345.867 637.316 346.386 636.737 346.89C636.174 347.38 635.64 347.884 635.136 348.403C634.632 348.922 634.187 349.463 633.801 350.027C633.43 350.59 633.208 351.198 633.134 351.851H639.985V353.675H630.954ZM646.761 353.72L656.482 337.214L657.817 338.059L648.096 354.565L646.761 353.72ZM650.788 342.775C650.788 344.317 650.461 345.519 649.809 346.379C649.156 347.239 648.207 347.669 646.961 347.669C645.716 347.669 644.774 347.246 644.136 346.401C643.499 345.541 643.18 344.332 643.18 342.775C643.18 341.233 643.506 340.046 644.159 339.216C644.811 338.37 645.753 337.948 646.984 337.948C648.215 337.948 649.156 338.37 649.809 339.216C650.461 340.046 650.788 341.233 650.788 342.775ZM648.941 342.775C648.941 341.663 648.771 340.825 648.43 340.261C648.089 339.698 647.599 339.416 646.961 339.416C646.353 339.416 645.879 339.668 645.538 340.172C645.197 340.662 645.026 341.529 645.026 342.775C645.026 343.887 645.197 344.733 645.538 345.311C645.879 345.889 646.361 346.178 646.984 346.178C647.295 346.178 647.57 346.119 647.807 346.001C648.059 345.882 648.267 345.689 648.43 345.422C648.593 345.155 648.719 344.807 648.808 344.377C648.897 343.947 648.941 343.413 648.941 342.775ZM661.51 348.915C661.51 350.457 661.183 351.658 660.531 352.518C659.878 353.378 658.929 353.809 657.684 353.809C656.438 353.809 655.496 353.386 654.858 352.541C654.221 351.68 653.902 350.472 653.902 348.915C653.902 347.372 654.228 346.186 654.881 345.355C655.533 344.51 656.475 344.087 657.706 344.087C658.937 344.087 659.878 344.51 660.531 345.355C661.183 346.186 661.51 347.372 661.51 348.915ZM659.663 348.915C659.663 347.802 659.493 346.964 659.152 346.401C658.811 345.837 658.321 345.556 657.684 345.556C657.076 345.556 656.601 345.808 656.26 346.312C655.919 346.801 655.748 347.669 655.748 348.915C655.748 350.027 655.919 350.872 656.26 351.451C656.601 352.029 657.083 352.318 657.706 352.318C658.017 352.318 658.292 352.259 658.529 352.14C658.781 352.022 658.989 351.829 659.152 351.562C659.315 351.295 659.441 350.946 659.53 350.516C659.619 350.086 659.663 349.552 659.663 348.915Z" fill="white"/>
<path d="M59.09 47.65C57.95 47.65 56.92 47.85 56 48.25C55.08 48.63 54.3 49.2 53.66 49.96C53.02 50.7 52.53 51.61 52.19 52.69C51.85 53.75 51.68 54.95 51.68 56.29C51.68 58.05 51.95 59.58 52.49 60.88C53.05 62.18 53.87 63.18 54.95 63.88C56.05 64.58 57.42 64.93 59.06 64.93C60 64.93 60.89 64.85 61.73 64.69C62.57 64.53 63.39 64.33 64.19 64.09V66.43C63.39 66.73 62.56 66.95 61.7 67.09C60.86 67.23 59.85 67.3 58.67 67.3C56.49 67.3 54.67 66.85 53.21 65.95C51.75 65.05 50.65 63.77 49.91 62.11C49.19 60.45 48.83 58.5 48.83 56.26C48.83 54.64 49.05 53.16 49.49 51.82C49.95 50.48 50.61 49.32 51.47 48.34C52.35 47.36 53.43 46.61 54.71 46.09C55.99 45.55 57.46 45.28 59.12 45.28C60.22 45.28 61.28 45.39 62.3 45.61C63.32 45.83 64.23 46.14 65.03 46.54L63.95 48.82C63.29 48.52 62.55 48.25 61.73 48.01C60.93 47.77 60.05 47.65 59.09 47.65ZM79.6051 53.14H74.3551V67H71.7451V53.14H66.5551V50.92H79.6051V53.14ZM88.8627 50.65C90.8227 50.65 92.2727 51.08 93.2127 51.94C94.1527 52.8 94.6227 54.17 94.6227 56.05V67H92.7027L92.1927 64.72H92.0727C91.6127 65.3 91.1327 65.79 90.6327 66.19C90.1527 66.57 89.5927 66.85 88.9527 67.03C88.3327 67.21 87.5727 67.3 86.6727 67.3C85.7127 67.3 84.8427 67.13 84.0627 66.79C83.3027 66.45 82.7027 65.93 82.2627 65.23C81.8227 64.51 81.6027 63.61 81.6027 62.53C81.6027 60.93 82.2327 59.7 83.4927 58.84C84.7527 57.96 86.6927 57.48 89.3127 57.4L92.0427 57.31V56.35C92.0427 55.01 91.7527 54.08 91.1727 53.56C90.5927 53.04 89.7727 52.78 88.7127 52.78C87.8727 52.78 87.0727 52.91 86.3127 53.17C85.5527 53.41 84.8427 53.69 84.1827 54.01L83.3727 52.03C84.0727 51.65 84.9027 51.33 85.8627 51.07C86.8227 50.79 87.8227 50.65 88.8627 50.65ZM89.6427 59.23C87.6427 59.31 86.2527 59.63 85.4727 60.19C84.7127 60.75 84.3327 61.54 84.3327 62.56C84.3327 63.46 84.6027 64.12 85.1427 64.54C85.7027 64.96 86.4127 65.17 87.2727 65.17C88.6327 65.17 89.7627 64.8 90.6627 64.06C91.5627 63.3 92.0127 62.14 92.0127 60.58V59.14L89.6427 59.23ZM110.689 53.14H105.439V67H102.829V53.14H97.6391V50.92H110.689V53.14ZM116.347 60.73C116.347 60.91 116.337 61.17 116.317 61.51C116.317 61.83 116.307 62.18 116.287 62.56C116.267 62.92 116.247 63.27 116.227 63.61C116.207 63.93 116.187 64.19 116.167 64.39L124.777 50.92H128.017V67H125.557V57.52C125.557 57.2 125.557 56.78 125.557 56.26C125.577 55.74 125.597 55.23 125.617 54.73C125.637 54.21 125.657 53.82 125.677 53.56L117.127 67H113.857V50.92H116.347V60.73ZM139.584 67.3C138.164 67.3 136.894 67.01 135.774 66.43C134.674 65.85 133.804 64.95 133.164 63.73C132.544 62.51 132.234 60.95 132.234 59.05C132.234 57.07 132.564 55.46 133.224 54.22C133.884 52.98 134.774 52.07 135.894 51.49C137.034 50.91 138.324 50.62 139.764 50.62C140.584 50.62 141.374 50.71 142.134 50.89C142.894 51.05 143.514 51.25 143.994 51.49L143.184 53.68C142.704 53.5 142.144 53.33 141.504 53.17C140.864 53.01 140.264 52.93 139.704 52.93C138.624 52.93 137.734 53.16 137.034 53.62C136.334 54.08 135.814 54.76 135.474 55.66C135.134 56.56 134.964 57.68 134.964 59.02C134.964 60.3 135.134 61.39 135.474 62.29C135.814 63.19 136.324 63.87 137.004 64.33C137.684 64.79 138.534 65.02 139.554 65.02C140.434 65.02 141.204 64.93 141.864 64.75C142.544 64.57 143.164 64.35 143.724 64.09V66.43C143.184 66.71 142.584 66.92 141.924 67.06C141.284 67.22 140.504 67.3 139.584 67.3ZM158.648 53.14H153.398V67H150.788V53.14H145.598V50.92H158.648V53.14ZM164.306 60.73C164.306 60.91 164.296 61.17 164.276 61.51C164.276 61.83 164.266 62.18 164.246 62.56C164.226 62.92 164.206 63.27 164.186 63.61C164.166 63.93 164.146 64.19 164.126 64.39L172.736 50.92H175.976V67H173.516V57.52C173.516 57.2 173.516 56.78 173.516 56.26C173.536 55.74 173.556 55.23 173.576 54.73C173.596 54.21 173.616 53.82 173.636 53.56L165.086 67H161.816V50.92H164.306V60.73ZM190.603 50.92H193.483L186.613 58.66L194.053 67H190.993L183.733 58.84V67H181.093V50.92H183.733V58.72L190.603 50.92ZM203.062 50.65C205.022 50.65 206.472 51.08 207.412 51.94C208.352 52.8 208.822 54.17 208.822 56.05V67H206.902L206.392 64.72H206.272C205.812 65.3 205.332 65.79 204.832 66.19C204.352 66.57 203.792 66.85 203.152 67.03C202.532 67.21 201.772 67.3 200.872 67.3C199.912 67.3 199.042 67.13 198.262 66.79C197.502 66.45 196.902 65.93 196.462 65.23C196.022 64.51 195.802 63.61 195.802 62.53C195.802 60.93 196.432 59.7 197.692 58.84C198.952 57.96 200.892 57.48 203.512 57.4L206.242 57.31V56.35C206.242 55.01 205.952 54.08 205.372 53.56C204.792 53.04 203.972 52.78 202.912 52.78C202.072 52.78 201.272 52.91 200.512 53.17C199.752 53.41 199.042 53.69 198.382 54.01L197.572 52.03C198.272 51.65 199.102 51.33 200.062 51.07C201.022 50.79 202.022 50.65 203.062 50.65ZM203.842 59.23C201.842 59.31 200.452 59.63 199.672 60.19C198.912 60.75 198.532 61.54 198.532 62.56C198.532 63.46 198.802 64.12 199.342 64.54C199.902 64.96 200.612 65.17 201.472 65.17C202.832 65.17 203.962 64.8 204.862 64.06C205.762 63.3 206.212 62.14 206.212 60.58V59.14L203.842 59.23ZM232.292 50.92H235.172L228.302 58.66L235.742 67H232.682L225.422 58.84V67H222.782V50.92H225.422V58.72L232.292 50.92ZM236.141 50.92H238.961L242.441 60.07C242.641 60.61 242.821 61.13 242.981 61.63C243.161 62.13 243.321 62.62 243.461 63.1C243.601 63.56 243.711 64.01 243.791 64.45H243.911C244.031 63.95 244.221 63.3 244.481 62.5C244.741 61.68 245.011 60.86 245.291 60.04L248.561 50.92H251.411L244.481 69.22C244.101 70.22 243.651 71.09 243.131 71.83C242.631 72.59 242.011 73.17 241.271 73.57C240.551 73.99 239.671 74.2 238.631 74.2C238.151 74.2 237.731 74.17 237.371 74.11C237.011 74.07 236.701 74.02 236.441 73.96V71.86C236.661 71.9 236.921 71.94 237.221 71.98C237.541 72.02 237.871 72.04 238.211 72.04C238.831 72.04 239.361 71.92 239.801 71.68C240.261 71.46 240.651 71.13 240.971 70.69C241.291 70.27 241.561 69.77 241.781 69.19L242.621 67.06L236.141 50.92ZM261.604 50.62C263.584 50.62 265.174 51.31 266.374 52.69C267.594 54.07 268.204 56.15 268.204 58.93C268.204 60.75 267.924 62.29 267.364 63.55C266.824 64.79 266.054 65.73 265.054 66.37C264.074 66.99 262.914 67.3 261.574 67.3C260.754 67.3 260.024 67.19 259.384 66.97C258.744 66.75 258.194 66.47 257.734 66.13C257.294 65.77 256.914 65.38 256.594 64.96H256.414C256.454 65.3 256.494 65.73 256.534 66.25C256.574 66.77 256.594 67.22 256.594 67.6V74.2H253.954V50.92H256.114L256.474 53.11H256.594C256.914 52.65 257.294 52.23 257.734 51.85C258.194 51.47 258.734 51.17 259.354 50.95C259.994 50.73 260.744 50.62 261.604 50.62ZM261.124 52.84C260.044 52.84 259.174 53.05 258.514 53.47C257.854 53.87 257.374 54.48 257.074 55.3C256.774 56.12 256.614 57.16 256.594 58.42V58.93C256.594 60.25 256.734 61.37 257.014 62.29C257.294 63.21 257.764 63.91 258.424 64.39C259.104 64.87 260.024 65.11 261.184 65.11C262.164 65.11 262.964 64.84 263.584 64.3C264.224 63.76 264.694 63.03 264.994 62.11C265.314 61.17 265.474 60.1 265.474 58.9C265.474 57.06 265.114 55.59 264.394 54.49C263.694 53.39 262.604 52.84 261.124 52.84ZM273.401 67H270.341L274.931 60.25C274.311 60.09 273.711 59.84 273.131 59.5C272.551 59.14 272.081 58.65 271.721 58.03C271.361 57.39 271.181 56.6 271.181 55.66C271.181 54.12 271.701 52.95 272.741 52.15C273.781 51.33 275.161 50.92 276.881 50.92H284.081V67H281.441V60.61H277.541L273.401 67ZM273.731 55.69C273.731 56.61 274.071 57.3 274.751 57.76C275.451 58.2 276.421 58.42 277.661 58.42H281.441V53.11H277.151C275.931 53.11 275.051 53.35 274.511 53.83C273.991 54.31 273.731 54.93 273.731 55.69ZM310.949 50.92V64.81H313.289V72.55H310.649V67H289.169V50.92H291.809V64.78H298.739V50.92H301.379V64.78H308.339V50.92H310.949ZM318.847 60.73C318.847 60.91 318.837 61.17 318.817 61.51C318.817 61.83 318.807 62.18 318.787 62.56C318.767 62.92 318.747 63.27 318.727 63.61C318.707 63.93 318.687 64.19 318.667 64.39L327.277 50.92H330.517V67H328.057V57.52C328.057 57.2 328.057 56.78 328.057 56.26C328.077 55.74 328.097 55.23 328.117 54.73C328.137 54.21 328.157 53.82 328.177 53.56L319.627 67H316.357V50.92H318.847V60.73ZM339.444 58.78L333.894 50.92H336.894L341.034 56.98L345.144 50.92H348.114L342.564 58.78L348.414 67H345.414L341.034 60.58L336.594 67H333.624L339.444 58.78ZM374.097 50.92V67H371.457V53.17H363.147V67H360.507V50.92H374.097ZM393.208 58.93C393.208 60.27 393.028 61.46 392.668 62.5C392.328 63.52 391.828 64.39 391.168 65.11C390.528 65.83 389.738 66.38 388.798 66.76C387.878 67.12 386.848 67.3 385.708 67.3C384.648 67.3 383.668 67.12 382.768 66.76C381.868 66.38 381.088 65.83 380.428 65.11C379.768 64.39 379.248 63.52 378.868 62.5C378.508 61.46 378.328 60.27 378.328 58.93C378.328 57.15 378.628 55.65 379.228 54.43C379.828 53.19 380.688 52.25 381.808 51.61C382.928 50.95 384.258 50.62 385.798 50.62C387.258 50.62 388.538 50.95 389.638 51.61C390.758 52.25 391.628 53.19 392.248 54.43C392.888 55.65 393.208 57.15 393.208 58.93ZM381.058 58.93C381.058 60.19 381.218 61.29 381.538 62.23C381.878 63.15 382.398 63.86 383.098 64.36C383.798 64.86 384.688 65.11 385.768 65.11C386.848 65.11 387.738 64.86 388.438 64.36C389.138 63.86 389.648 63.15 389.968 62.23C390.308 61.29 390.478 60.19 390.478 58.93C390.478 57.65 390.308 56.56 389.968 55.66C389.628 54.76 389.108 54.07 388.408 53.59C387.728 53.09 386.838 52.84 385.738 52.84C384.098 52.84 382.908 53.38 382.168 54.46C381.428 55.54 381.058 57.03 381.058 58.93ZM409.332 50.92V64.78H411.672V72.58H409.122V67H397.932V72.58H395.412V64.78H396.702C397.622 63.5 398.382 62.11 398.982 60.61C399.602 59.09 400.062 57.51 400.362 55.87C400.682 54.21 400.852 52.56 400.872 50.92H409.332ZM403.212 52.99C403.132 54.35 402.922 55.76 402.582 57.22C402.242 58.66 401.802 60.04 401.262 61.36C400.742 62.68 400.132 63.82 399.432 64.78H406.782V52.99H403.212ZM422.473 50.62C424.453 50.62 426.043 51.31 427.243 52.69C428.463 54.07 429.073 56.15 429.073 58.93C429.073 60.75 428.793 62.29 428.233 63.55C427.693 64.79 426.923 65.73 425.923 66.37C424.943 66.99 423.783 67.3 422.443 67.3C421.623 67.3 420.893 67.19 420.253 66.97C419.613 66.75 419.063 66.47 418.603 66.13C418.163 65.77 417.783 65.38 417.463 64.96H417.283C417.323 65.3 417.363 65.73 417.403 66.25C417.443 66.77 417.463 67.22 417.463 67.6V74.2H414.823V50.92H416.983L417.343 53.11H417.463C417.783 52.65 418.163 52.23 418.603 51.85C419.063 51.47 419.603 51.17 420.223 50.95C420.863 50.73 421.613 50.62 422.473 50.62ZM421.993 52.84C420.913 52.84 420.043 53.05 419.383 53.47C418.723 53.87 418.243 54.48 417.943 55.3C417.643 56.12 417.483 57.16 417.463 58.42V58.93C417.463 60.25 417.603 61.37 417.883 62.29C418.163 63.21 418.633 63.91 419.293 64.39C419.973 64.87 420.893 65.11 422.053 65.11C423.033 65.11 423.833 64.84 424.453 64.3C425.093 63.76 425.563 63.03 425.863 62.11C426.183 61.17 426.343 60.1 426.343 58.9C426.343 57.06 425.983 55.59 425.263 54.49C424.563 53.39 423.473 52.84 421.993 52.84ZM447.26 58.93C447.26 60.27 447.08 61.46 446.72 62.5C446.38 63.52 445.88 64.39 445.22 65.11C444.58 65.83 443.79 66.38 442.85 66.76C441.93 67.12 440.9 67.3 439.76 67.3C438.7 67.3 437.72 67.12 436.82 66.76C435.92 66.38 435.14 65.83 434.48 65.11C433.82 64.39 433.3 63.52 432.92 62.5C432.56 61.46 432.38 60.27 432.38 58.93C432.38 57.15 432.68 55.65 433.28 54.43C433.88 53.19 434.74 52.25 435.86 51.61C436.98 50.95 438.31 50.62 439.85 50.62C441.31 50.62 442.59 50.95 443.69 51.61C444.81 52.25 445.68 53.19 446.3 54.43C446.94 55.65 447.26 57.15 447.26 58.93ZM435.11 58.93C435.11 60.19 435.27 61.29 435.59 62.23C435.93 63.15 436.45 63.86 437.15 64.36C437.85 64.86 438.74 65.11 439.82 65.11C440.9 65.11 441.79 64.86 442.49 64.36C443.19 63.86 443.7 63.15 444.02 62.23C444.36 61.29 444.53 60.19 444.53 58.93C444.53 57.65 444.36 56.56 444.02 55.66C443.68 54.76 443.16 54.07 442.46 53.59C441.78 53.09 440.89 52.84 439.79 52.84C438.15 52.84 436.96 53.38 436.22 54.46C435.48 55.54 435.11 57.03 435.11 58.93ZM457.895 67.3C456.475 67.3 455.205 67.01 454.085 66.43C452.985 65.85 452.115 64.95 451.475 63.73C450.855 62.51 450.545 60.95 450.545 59.05C450.545 57.07 450.875 55.46 451.535 54.22C452.195 52.98 453.085 52.07 454.205 51.49C455.345 50.91 456.635 50.62 458.075 50.62C458.895 50.62 459.685 50.71 460.445 50.89C461.205 51.05 461.825 51.25 462.305 51.49L461.495 53.68C461.015 53.5 460.455 53.33 459.815 53.17C459.175 53.01 458.575 52.93 458.015 52.93C456.935 52.93 456.045 53.16 455.345 53.62C454.645 54.08 454.125 54.76 453.785 55.66C453.445 56.56 453.275 57.68 453.275 59.02C453.275 60.3 453.445 61.39 453.785 62.29C454.125 63.19 454.635 63.87 455.315 64.33C455.995 64.79 456.845 65.02 457.865 65.02C458.745 65.02 459.515 64.93 460.175 64.75C460.855 64.57 461.475 64.35 462.035 64.09V66.43C461.495 66.71 460.895 66.92 460.235 67.06C459.595 67.22 458.815 67.3 457.895 67.3ZM476.959 53.14H471.709V67H469.099V53.14H463.909V50.92H476.959V53.14ZM489.636 50.92H492.516L485.646 58.66L493.086 67H490.026L482.766 58.84V67H480.126V50.92H482.766V58.72L489.636 50.92ZM509.399 58.93C509.399 60.27 509.219 61.46 508.859 62.5C508.519 63.52 508.019 64.39 507.359 65.11C506.719 65.83 505.929 66.38 504.989 66.76C504.069 67.12 503.039 67.3 501.899 67.3C500.839 67.3 499.859 67.12 498.959 66.76C498.059 66.38 497.279 65.83 496.619 65.11C495.959 64.39 495.439 63.52 495.059 62.5C494.699 61.46 494.519 60.27 494.519 58.93C494.519 57.15 494.819 55.65 495.419 54.43C496.019 53.19 496.879 52.25 497.999 51.61C499.119 50.95 500.449 50.62 501.989 50.62C503.449 50.62 504.729 50.95 505.829 51.61C506.949 52.25 507.819 53.19 508.439 54.43C509.079 55.65 509.399 57.15 509.399 58.93ZM497.249 58.93C497.249 60.19 497.409 61.29 497.729 62.23C498.069 63.15 498.589 63.86 499.289 64.36C499.989 64.86 500.879 65.11 501.959 65.11C503.039 65.11 503.929 64.86 504.629 64.36C505.329 63.86 505.839 63.15 506.159 62.23C506.499 61.29 506.669 60.19 506.669 58.93C506.669 57.65 506.499 56.56 506.159 55.66C505.819 54.76 505.299 54.07 504.599 53.59C503.919 53.09 503.029 52.84 501.929 52.84C500.289 52.84 499.099 53.38 498.359 54.46C497.619 55.54 497.249 57.03 497.249 58.93ZM526.513 54.97C526.513 55.97 526.213 56.75 525.613 57.31C525.013 57.87 524.243 58.25 523.303 58.45V58.57C524.303 58.71 525.173 59.07 525.913 59.65C526.653 60.21 527.023 61.09 527.023 62.29C527.023 62.97 526.893 63.6 526.633 64.18C526.393 64.76 526.013 65.26 525.493 65.68C524.973 66.1 524.303 66.43 523.483 66.67C522.663 66.89 521.673 67 520.513 67H513.583V50.92H520.483C521.623 50.92 522.643 51.05 523.543 51.31C524.463 51.55 525.183 51.97 525.703 52.57C526.243 53.15 526.513 53.95 526.513 54.97ZM524.293 62.29C524.293 61.37 523.943 60.71 523.243 60.31C522.543 59.91 521.513 59.71 520.153 59.71H516.223V64.87H520.213C521.533 64.87 522.543 64.68 523.243 64.3C523.943 63.9 524.293 63.23 524.293 62.29ZM523.843 55.3C523.843 54.54 523.563 53.99 523.003 53.65C522.463 53.29 521.573 53.11 520.333 53.11H516.223V57.52H519.853C521.153 57.52 522.143 57.34 522.823 56.98C523.503 56.62 523.843 56.06 523.843 55.3ZM552.793 54.97C552.793 55.97 552.493 56.75 551.893 57.31C551.293 57.87 550.523 58.25 549.583 58.45V58.57C550.583 58.71 551.453 59.07 552.193 59.65C552.933 60.21 553.303 61.09 553.303 62.29C553.303 62.97 553.173 63.6 552.913 64.18C552.673 64.76 552.293 65.26 551.773 65.68C551.253 66.1 550.583 66.43 549.763 66.67C548.943 66.89 547.953 67 546.793 67H539.863V50.92H546.763C547.903 50.92 548.923 51.05 549.823 51.31C550.743 51.55 551.463 51.97 551.983 52.57C552.523 53.15 552.793 53.95 552.793 54.97ZM550.573 62.29C550.573 61.37 550.223 60.71 549.523 60.31C548.823 59.91 547.793 59.71 546.433 59.71H542.503V64.87H546.493C547.813 64.87 548.823 64.68 549.523 64.3C550.223 63.9 550.573 63.23 550.573 62.29ZM550.123 55.3C550.123 54.54 549.843 53.99 549.283 53.65C548.743 53.29 547.853 53.11 546.613 53.11H542.503V57.52H546.132C547.433 57.52 548.423 57.34 549.103 56.98C549.783 56.62 550.123 56.06 550.123 55.3ZM57.2 85.62C59.18 85.62 60.77 86.31 61.97 87.69C63.19 89.07 63.8 91.15 63.8 93.93C63.8 95.75 63.52 97.29 62.96 98.55C62.42 99.79 61.65 100.73 60.65 101.37C59.67 101.99 58.51 102.3 57.17 102.3C56.35 102.3 55.62 102.19 54.98 101.97C54.34 101.75 53.79 101.47 53.33 101.13C52.89 100.77 52.51 100.38 52.19 99.96H52.01C52.05 100.3 52.09 100.73 52.13 101.25C52.17 101.77 52.19 102.22 52.19 102.6V109.2H49.55V85.92H51.71L52.07 88.11H52.19C52.51 87.65 52.89 87.23 53.33 86.85C53.79 86.47 54.33 86.17 54.95 85.95C55.59 85.73 56.34 85.62 57.2 85.62ZM56.72 87.84C55.64 87.84 54.77 88.05 54.11 88.47C53.45 88.87 52.97 89.48 52.67 90.3C52.37 91.12 52.21 92.16 52.19 93.42V93.93C52.19 95.25 52.33 96.37 52.61 97.29C52.89 98.21 53.36 98.91 54.02 99.39C54.7 99.87 55.62 100.11 56.78 100.11C57.76 100.11 58.56 99.84 59.18 99.3C59.82 98.76 60.29 98.03 60.59 97.11C60.91 96.17 61.07 95.1 61.07 93.9C61.07 92.06 60.71 90.59 59.99 89.49C59.29 88.39 58.2 87.84 56.72 87.84ZM74.097 85.65C76.057 85.65 77.507 86.08 78.447 86.94C79.387 87.8 79.857 89.17 79.857 91.05V102H77.937L77.427 99.72H77.307C76.847 100.3 76.367 100.79 75.867 101.19C75.387 101.57 74.827 101.85 74.187 102.03C73.567 102.21 72.807 102.3 71.907 102.3C70.947 102.3 70.077 102.13 69.297 101.79C68.537 101.45 67.937 100.93 67.497 100.23C67.057 99.51 66.837 98.61 66.837 97.53C66.837 95.93 67.467 94.7 68.727 93.84C69.987 92.96 71.927 92.48 74.547 92.4L77.277 92.31V91.35C77.277 90.01 76.987 89.08 76.407 88.56C75.827 88.04 75.007 87.78 73.947 87.78C73.107 87.78 72.307 87.91 71.547 88.17C70.787 88.41 70.077 88.69 69.417 89.01L68.607 87.03C69.307 86.65 70.137 86.33 71.097 86.07C72.057 85.79 73.057 85.65 74.097 85.65ZM74.877 94.23C72.877 94.31 71.487 94.63 70.707 95.19C69.947 95.75 69.567 96.54 69.567 97.56C69.567 98.46 69.837 99.12 70.377 99.54C70.937 99.96 71.647 100.17 72.507 100.17C73.867 100.17 74.997 99.8 75.897 99.06C76.797 98.3 77.247 97.14 77.247 95.58V94.14L74.877 94.23ZM89.0534 85.62C90.2734 85.62 91.3334 85.79 92.2334 86.13C93.1334 86.45 93.8334 86.93 94.3334 87.57C94.8334 88.19 95.0834 88.95 95.0834 89.85C95.0834 90.83 94.8134 91.61 94.2734 92.19C93.7334 92.75 92.9934 93.16 92.0534 93.42V93.54C92.6934 93.72 93.2834 93.97 93.8234 94.29C94.3634 94.61 94.7934 95.03 95.1134 95.55C95.4534 96.07 95.6234 96.74 95.6234 97.56C95.6234 98.44 95.3734 99.24 94.8734 99.96C94.3934 100.68 93.6434 101.25 92.6234 101.67C91.6234 102.09 90.3334 102.3 88.7534 102.3C87.9934 102.3 87.2634 102.26 86.5634 102.18C85.8834 102.1 85.2634 101.98 84.7034 101.82C84.1634 101.66 83.6834 101.47 83.2634 101.25V98.88C83.9434 99.2 84.7434 99.49 85.6634 99.75C86.6034 100.01 87.6234 100.14 88.7234 100.14C89.5234 100.14 90.2434 100.05 90.8834 99.87C91.5434 99.69 92.0634 99.41 92.4434 99.03C92.8234 98.63 93.0134 98.09 93.0134 97.41C93.0134 96.79 92.8434 96.29 92.5034 95.91C92.1634 95.51 91.6534 95.21 90.9734 95.01C90.3134 94.81 89.4634 94.71 88.4234 94.71H86.2634V92.55H88.0034C89.3834 92.55 90.4834 92.37 91.3034 92.01C92.1434 91.63 92.5634 90.99 92.5634 90.09C92.5634 89.33 92.2434 88.76 91.6034 88.38C90.9834 88 90.0834 87.81 88.9034 87.81C88.0234 87.81 87.2434 87.9 86.5634 88.08C85.9034 88.24 85.1734 88.49 84.3734 88.83L83.4434 86.73C84.3034 86.35 85.2034 86.07 86.1434 85.89C87.0834 85.71 88.0534 85.62 89.0534 85.62ZM102.17 85.92V92.61H110.9V85.92H113.54V102H110.9V94.83H102.17V102H99.5305V85.92H102.17ZM118.632 102V85.92H121.272V92.52H125.442C126.842 92.52 127.992 92.69 128.892 93.03C129.792 93.37 130.462 93.88 130.902 94.56C131.342 95.22 131.562 96.06 131.562 97.08C131.562 98.08 131.342 98.95 130.902 99.69C130.482 100.43 129.812 101 128.892 101.4C127.992 101.8 126.802 102 125.322 102H118.632ZM125.082 99.87C126.222 99.87 127.152 99.68 127.872 99.3C128.592 98.9 128.952 98.21 128.952 97.23C128.952 96.25 128.622 95.59 127.962 95.25C127.302 94.89 126.352 94.71 125.112 94.71H121.272V99.87H125.082ZM134.232 102V85.92H136.872V102H134.232ZM145.792 93.78L140.242 85.92H143.242L147.382 91.98L151.492 85.92H154.462L148.912 93.78L154.762 102H151.762L147.382 95.58L142.942 102H139.972L145.792 93.78ZM173.305 102.3C171.885 102.3 170.615 102.01 169.495 101.43C168.395 100.85 167.525 99.95 166.885 98.73C166.265 97.51 165.955 95.95 165.955 94.05C165.955 92.07 166.285 90.46 166.945 89.22C167.605 87.98 168.495 87.07 169.615 86.49C170.755 85.91 172.045 85.62 173.485 85.62C174.305 85.62 175.095 85.71 175.855 85.89C176.615 86.05 177.235 86.25 177.715 86.49L176.905 88.68C176.425 88.5 175.865 88.33 175.225 88.17C174.585 88.01 173.985 87.93 173.425 87.93C172.345 87.93 171.455 88.16 170.755 88.62C170.055 89.08 169.535 89.76 169.195 90.66C168.855 91.56 168.685 92.68 168.685 94.02C168.685 95.3 168.855 96.39 169.195 97.29C169.535 98.19 170.045 98.87 170.725 99.33C171.405 99.79 172.255 100.02 173.275 100.02C174.155 100.02 174.925 99.93 175.585 99.75C176.265 99.57 176.885 99.35 177.445 99.09V101.43C176.905 101.71 176.305 101.92 175.645 102.06C175.005 102.22 174.225 102.3 173.305 102.3ZM192.369 88.14H187.119V102H184.509V88.14H179.319V85.92H192.369V88.14ZM203.186 85.62C205.166 85.62 206.756 86.31 207.956 87.69C209.176 89.07 209.786 91.15 209.786 93.93C209.786 95.75 209.506 97.29 208.946 98.55C208.406 99.79 207.636 100.73 206.636 101.37C205.656 101.99 204.496 102.3 203.156 102.3C202.336 102.3 201.606 102.19 200.966 101.97C200.326 101.75 199.776 101.47 199.316 101.13C198.876 100.77 198.496 100.38 198.176 99.96H197.996C198.036 100.3 198.076 100.73 198.116 101.25C198.156 101.77 198.176 102.22 198.176 102.6V109.2H195.536V85.92H197.696L198.056 88.11H198.176C198.496 87.65 198.876 87.23 199.316 86.85C199.776 86.47 200.316 86.17 200.936 85.95C201.576 85.73 202.326 85.62 203.186 85.62ZM202.706 87.84C201.626 87.84 200.756 88.05 200.096 88.47C199.436 88.87 198.956 89.48 198.656 90.3C198.356 91.12 198.196 92.16 198.176 93.42V93.93C198.176 95.25 198.316 96.37 198.596 97.29C198.876 98.21 199.346 98.91 200.006 99.39C200.686 99.87 201.606 100.11 202.766 100.11C203.746 100.11 204.546 99.84 205.166 99.3C205.806 98.76 206.276 98.03 206.576 97.11C206.896 96.17 207.056 95.1 207.056 93.9C207.056 92.06 206.696 90.59 205.976 89.49C205.276 88.39 204.186 87.84 202.706 87.84ZM220.083 85.65C222.043 85.65 223.493 86.08 224.433 86.94C225.373 87.8 225.843 89.17 225.843 91.05V102H223.923L223.413 99.72H223.293C222.833 100.3 222.353 100.79 221.853 101.19C221.373 101.57 220.813 101.85 220.173 102.03C219.553 102.21 218.793 102.3 217.893 102.3C216.933 102.3 216.063 102.13 215.283 101.79C214.523 101.45 213.923 100.93 213.483 100.23C213.043 99.51 212.823 98.61 212.823 97.53C212.823 95.93 213.453 94.7 214.713 93.84C215.973 92.96 217.913 92.48 220.533 92.4L223.263 92.31V91.35C223.263 90.01 222.973 89.08 222.393 88.56C221.813 88.04 220.993 87.78 219.933 87.78C219.093 87.78 218.293 87.91 217.533 88.17C216.773 88.41 216.063 88.69 215.403 89.01L214.593 87.03C215.293 86.65 216.123 86.33 217.083 86.07C218.043 85.79 219.043 85.65 220.083 85.65ZM220.863 94.23C218.863 94.31 217.473 94.63 216.693 95.19C215.933 95.75 215.553 96.54 215.553 97.56C215.553 98.46 215.823 99.12 216.363 99.54C216.923 99.96 217.633 100.17 218.493 100.17C219.853 100.17 220.983 99.8 221.883 99.06C222.783 98.3 223.233 97.14 223.233 95.58V94.14L220.863 94.23ZM233.45 85.92V92.61H242.18V85.92H244.82V102H242.18V94.83H233.45V102H230.81V85.92H233.45ZM256.001 85.65C257.961 85.65 259.411 86.08 260.351 86.94C261.291 87.8 261.761 89.17 261.761 91.05V102H259.841L259.331 99.72H259.211C258.751 100.3 258.271 100.79 257.771 101.19C257.291 101.57 256.731 101.85 256.091 102.03C255.471 102.21 254.711 102.3 253.811 102.3C252.851 102.3 251.981 102.13 251.201 101.79C250.441 101.45 249.841 100.93 249.401 100.23C248.961 99.51 248.741 98.61 248.741 97.53C248.741 95.93 249.371 94.7 250.631 93.84C251.891 92.96 253.831 92.48 256.451 92.4L259.181 92.31V91.35C259.181 90.01 258.891 89.08 258.311 88.56C257.731 88.04 256.911 87.78 255.851 87.78C255.011 87.78 254.211 87.91 253.451 88.17C252.691 88.41 251.981 88.69 251.321 89.01L250.511 87.03C251.211 86.65 252.041 86.33 253.001 86.07C253.961 85.79 254.961 85.65 256.001 85.65ZM256.781 94.23C254.781 94.31 253.391 94.63 252.611 95.19C251.851 95.75 251.471 96.54 251.471 97.56C251.471 98.46 251.741 99.12 252.281 99.54C252.841 99.96 253.551 100.17 254.411 100.17C255.771 100.17 256.901 99.8 257.801 99.06C258.701 98.3 259.151 97.14 259.151 95.58V94.14L256.781 94.23ZM270.538 93.78L264.988 85.92H267.988L272.128 91.98L276.238 85.92H279.208L273.658 93.78L279.508 102H276.508L272.128 95.58L267.688 102H264.718L270.538 93.78ZM308.851 85.92V102H306.481V91.74C306.481 91.32 306.491 90.88 306.511 90.42C306.551 89.96 306.591 89.51 306.631 89.07H306.541L301.291 102H299.071L293.971 89.07H293.881C293.921 89.51 293.941 89.96 293.941 90.42C293.961 90.88 293.971 91.35 293.971 91.83V102H291.601V85.92H295.111L300.181 98.85L305.341 85.92H308.851ZM316.474 95.73C316.474 95.91 316.464 96.17 316.444 96.51C316.444 96.83 316.434 97.18 316.414 97.56C316.394 97.92 316.374 98.27 316.354 98.61C316.334 98.93 316.314 99.19 316.294 99.39L324.904 85.92H328.144V102H325.684V92.52C325.684 92.2 325.684 91.78 325.684 91.26C325.704 90.74 325.724 90.23 325.744 89.73C325.764 89.21 325.784 88.82 325.804 88.56L317.254 102H313.984V85.92H316.474V95.73ZM340.911 85.62C342.891 85.62 344.481 86.31 345.681 87.69C346.901 89.07 347.511 91.15 347.511 93.93C347.511 95.75 347.231 97.29 346.671 98.55C346.131 99.79 345.361 100.73 344.361 101.37C343.381 101.99 342.221 102.3 340.881 102.3C340.061 102.3 339.331 102.19 338.691 101.97C338.051 101.75 337.501 101.47 337.041 101.13C336.601 100.77 336.221 100.38 335.901 99.96H335.721C335.761 100.3 335.801 100.73 335.841 101.25C335.881 101.77 335.901 102.22 335.901 102.6V109.2H333.261V85.92H335.421L335.781 88.11H335.901C336.221 87.65 336.601 87.23 337.041 86.85C337.501 86.47 338.041 86.17 338.661 85.95C339.301 85.73 340.051 85.62 340.911 85.62ZM340.431 87.84C339.351 87.84 338.481 88.05 337.821 88.47C337.161 88.87 336.681 89.48 336.381 90.3C336.081 91.12 335.921 92.16 335.901 93.42V93.93C335.901 95.25 336.041 96.37 336.321 97.29C336.601 98.21 337.071 98.91 337.731 99.39C338.411 99.87 339.331 100.11 340.491 100.11C341.471 100.11 342.271 99.84 342.891 99.3C343.531 98.76 344.001 98.03 344.301 97.11C344.621 96.17 344.781 95.1 344.781 93.9C344.781 92.06 344.421 90.59 343.701 89.49C343.001 88.39 341.911 87.84 340.431 87.84ZM357.808 85.65C359.768 85.65 361.218 86.08 362.158 86.94C363.098 87.8 363.568 89.17 363.568 91.05V102H361.648L361.138 99.72H361.018C360.558 100.3 360.078 100.79 359.578 101.19C359.098 101.57 358.538 101.85 357.898 102.03C357.278 102.21 356.518 102.3 355.618 102.3C354.658 102.3 353.788 102.13 353.008 101.79C352.248 101.45 351.648 100.93 351.208 100.23C350.768 99.51 350.548 98.61 350.548 97.53C350.548 95.93 351.178 94.7 352.438 93.84C353.698 92.96 355.638 92.48 358.258 92.4L360.988 92.31V91.35C360.988 90.01 360.698 89.08 360.118 88.56C359.538 88.04 358.718 87.78 357.658 87.78C356.818 87.78 356.018 87.91 355.258 88.17C354.498 88.41 353.788 88.69 353.128 89.01L352.318 87.03C353.018 86.65 353.848 86.33 354.808 86.07C355.768 85.79 356.768 85.65 357.808 85.65ZM358.588 94.23C356.588 94.31 355.198 94.63 354.418 95.19C353.658 95.75 353.278 96.54 353.278 97.56C353.278 98.46 353.548 99.12 354.088 99.54C354.648 99.96 355.358 100.17 356.218 100.17C357.578 100.17 358.708 99.8 359.608 99.06C360.508 98.3 360.958 97.14 360.958 95.58V94.14L358.588 94.23Z" fill="white"/>
</svg>
