<svg width="112" height="57" viewBox="0 0 112 57" fill="none" xmlns="http://www.w3.org/2000/svg">
<path d="M2.78358 27.4793C3.90945 28.4175 5.17606 29.1838 6.5834 29.778C7.99075 30.3722 9.63265 30.6693 11.5091 30.6693C13.7609 30.6693 15.5435 30.2002 16.857 29.2619C18.1705 28.3237 18.8273 27.0571 18.8273 25.4621C18.8273 24.8054 18.7335 24.1955 18.5458 23.6326C18.3582 23.0696 17.9829 22.538 17.4199 22.0376C16.8883 21.5059 16.1221 20.9899 15.1213 20.4895C14.1518 19.9578 12.8852 19.3949 11.3215 18.8007C9.63265 18.1439 8.19403 17.5028 7.00561 16.8773C5.84846 16.2206 4.91023 15.5169 4.19092 14.7663C3.47161 13.9845 2.95559 13.1401 2.64285 12.2331C2.3301 11.2949 2.17373 10.2315 2.17373 9.04313C2.17373 7.88598 2.40829 6.79138 2.8774 5.75933C3.37779 4.72727 4.0971 3.83596 5.03533 3.08538C6.00483 2.30352 7.17762 1.69367 8.55368 1.25583C9.96103 0.817992 11.556 0.599072 13.3386 0.599072C15.2777 0.599072 17.0134 0.802354 18.5458 1.20892C20.0783 1.58421 21.5951 2.13151 23.0962 2.85082L21.4543 6.65064C20.391 6.02516 19.14 5.50913 17.7014 5.10257C16.2941 4.66473 14.8085 4.44581 13.2448 4.44581C11.1807 4.44581 9.55446 4.85237 8.36604 5.6655C7.17762 6.44736 6.5834 7.49505 6.5834 8.80857C6.5834 9.43406 6.66159 9.99699 6.81796 10.4974C7.00561 10.9665 7.34962 11.4356 7.85001 11.9047C8.38168 12.3426 9.10098 12.796 10.0079 13.2652C10.9462 13.7343 12.1815 14.2503 13.7139 14.8132C15.5278 15.5013 17.0603 16.2049 18.3113 16.9242C19.5622 17.6436 20.563 18.4098 21.3136 19.2229C22.0642 20.036 22.5958 20.9117 22.9086 21.8499C23.2526 22.7882 23.4246 23.8202 23.4246 24.9461C23.4246 26.4785 23.1275 27.839 22.5333 29.0274C21.9391 30.2158 21.1103 31.2322 20.047 32.0766C19.0149 32.8898 17.764 33.5152 16.2941 33.9531C14.8242 34.3597 13.2292 34.5629 11.5091 34.5629C9.22608 34.5629 7.14634 34.2658 5.26988 33.6716C3.39343 33.0461 1.81408 32.233 0.531831 31.2322L2.78358 27.4793ZM26.2561 1.16201H50.8846V5.10257H40.7987V34H36.3421V5.10257H26.2561V1.16201ZM52.2755 17.5341C52.2755 15.126 52.6195 12.8899 53.3075 10.8258C54.0268 8.76166 55.0433 6.97902 56.3568 5.47786C57.7016 3.94542 59.3278 2.757 61.2356 1.91259C63.1433 1.03691 65.3169 0.599072 67.7563 0.599072C70.1644 0.599072 72.3223 1.05255 74.23 1.9595C76.169 2.83518 77.7953 4.03924 79.1088 5.57168C80.4536 7.10412 81.4857 8.90239 82.205 10.9665C82.9243 12.9993 83.2839 15.1885 83.2839 17.5341C83.2839 19.8797 82.9243 22.0845 82.205 24.1486C81.5169 26.2127 80.5005 28.0266 79.1557 29.5903C77.8109 31.1228 76.1847 32.3425 74.2769 33.2494C72.3692 34.1251 70.1956 34.5629 67.7563 34.5629C65.3169 34.5629 63.1433 34.1251 61.2356 33.2494C59.3278 32.3425 57.7016 31.1228 56.3568 29.5903C55.0433 28.0266 54.0268 26.2127 53.3075 24.1486C52.6195 22.0845 52.2755 19.8797 52.2755 17.5341ZM56.8259 17.5341C56.8259 19.2229 57.0605 20.8648 57.5296 22.4598C58.03 24.0548 58.7493 25.4621 59.6875 26.6818C60.6257 27.9015 61.7672 28.8867 63.112 29.6372C64.4881 30.3565 66.0362 30.7162 67.7563 30.7162C69.5702 30.7162 71.1495 30.3878 72.4943 29.7311C73.8704 29.043 75.0119 28.1204 75.9188 26.9633C76.8571 25.7749 77.5607 24.3832 78.0299 22.7882C78.499 21.1619 78.7335 19.4105 78.7335 17.5341C78.7335 15.8453 78.4833 14.219 77.9829 12.6553C77.4826 11.0916 76.7632 9.69989 75.825 8.48019C74.8868 7.26049 73.7296 6.29099 72.3536 5.57168C71.0088 4.8211 69.4763 4.44581 67.7563 4.44581C66.0362 4.44581 64.4881 4.78982 63.112 5.47786C61.7672 6.13462 60.6257 7.05721 59.6875 8.24563C58.7493 9.40278 58.03 10.7788 57.5296 12.3738C57.0605 13.9688 56.8259 15.6889 56.8259 17.5341ZM89.8394 1.25583C91.153 1.09946 92.5603 0.99 94.0615 0.92745C95.5939 0.833629 97.2045 0.786718 98.8933 0.786718C100.926 0.786718 102.74 1.03691 104.335 1.5373C105.93 2.03769 107.275 2.72572 108.369 3.6014C109.464 4.47708 110.293 5.54041 110.856 6.79138C111.419 8.01108 111.7 9.34023 111.7 10.7788C111.7 12.5302 111.356 14.0939 110.668 15.47C110.011 16.8148 109.073 17.9563 107.853 18.8945C106.665 19.8328 105.226 20.5521 103.538 21.0524C101.849 21.5216 99.9879 21.7561 97.9551 21.7561C96.6416 21.7561 95.4219 21.7092 94.296 21.6154V34H89.8394V1.25583ZM98.518 18.0501C101.333 18.0501 103.491 17.4403 104.992 16.2206C106.524 14.9696 107.29 13.2808 107.29 11.1541C107.29 9.12131 106.556 7.51069 105.086 6.32226C103.647 5.13384 101.552 4.53963 98.7995 4.53963C97.9551 4.53963 97.1576 4.55527 96.407 4.58654C95.6565 4.61782 94.9528 4.66473 94.296 4.72728V17.8156C94.7964 17.8781 95.3906 17.9407 96.0787 18.0032C96.798 18.0345 97.6111 18.0501 98.518 18.0501ZM22.5212 49.9231C22.8289 50.1953 23.2135 50.4142 23.675 50.5799C24.1484 50.7456 24.6513 50.8284 25.1839 50.8284C25.8466 50.8284 26.3436 50.7219 26.675 50.5089C27.0182 50.284 27.1898 50 27.1898 49.6568C27.1898 49.4793 27.1543 49.3136 27.0833 49.1598C27.0241 49.0059 26.9058 48.858 26.7282 48.716C26.5626 48.574 26.3318 48.4379 26.0359 48.3077C25.7401 48.1657 25.3555 48.0119 24.8821 47.8462C24.0064 47.5503 23.3555 47.2012 22.9294 46.7988C22.5034 46.3846 22.2904 45.8166 22.2904 45.0947C22.2904 44.7397 22.3673 44.4083 22.5212 44.1006C22.6868 43.7929 22.9176 43.5267 23.2135 43.3018C23.5212 43.0651 23.888 42.8817 24.3141 42.7515C24.7519 42.6214 25.249 42.5563 25.8052 42.5563C26.4087 42.5563 26.9353 42.6214 27.385 42.7515C27.8466 42.8699 28.2608 43.0237 28.6276 43.2131L28.1839 44.5267C27.8643 44.3373 27.4975 44.1835 27.0833 44.0651C26.6809 43.9468 26.2312 43.8876 25.7342 43.8876C25.1188 43.8876 24.6513 44.0119 24.3318 44.2604C24.0123 44.5089 23.8525 44.7811 23.8525 45.077C23.8525 45.219 23.8762 45.3491 23.9235 45.4675C23.9827 45.5858 24.0833 45.6983 24.2253 45.8048C24.3673 45.9113 24.5567 46.0178 24.7933 46.1243C25.03 46.2308 25.3259 46.3432 25.6809 46.4616C26.2608 46.6628 26.7519 46.8698 27.1543 47.0829C27.5566 47.284 27.8821 47.5089 28.1306 47.7574C28.3791 48.0059 28.5566 48.2781 28.6631 48.574C28.7697 48.858 28.8229 49.1775 28.8229 49.5326C28.8229 49.9468 28.7342 50.3195 28.5566 50.6509C28.3791 50.9823 28.1306 51.2663 27.8111 51.503C27.4916 51.7278 27.101 51.8994 26.6395 52.0178C26.1898 52.1479 25.6868 52.213 25.1306 52.213C24.4206 52.213 23.7874 52.1243 23.2312 51.9467C22.675 51.7692 22.2135 51.5385 21.8466 51.2544L22.5212 49.9231ZM32.4934 44.3136C32.8248 43.8166 33.239 43.4024 33.736 43.0711C34.2449 42.7279 34.8307 42.5563 35.4934 42.5563C36.2271 42.5563 36.8248 42.7338 37.2863 43.0888C37.7478 43.432 38.0792 43.9054 38.2804 44.5089C38.6472 43.9645 39.0792 43.503 39.5762 43.1243C40.0851 42.7456 40.7123 42.5563 41.4579 42.5563C41.9549 42.5563 42.3869 42.6391 42.7537 42.8048C43.1324 42.9705 43.446 43.2071 43.6945 43.5148C43.9431 43.8107 44.1265 44.1716 44.2448 44.5977C44.375 45.0119 44.4401 45.4734 44.4401 45.9823V52H42.8425V46.1065C42.8425 45.4675 42.6946 44.9527 42.3987 44.5622C42.1028 44.1598 41.6946 43.9586 41.1739 43.9586C40.9017 43.9586 40.6413 44.0119 40.3928 44.1184C40.1443 44.2249 39.9076 44.3728 39.6827 44.5622C39.4579 44.7397 39.2449 44.9527 39.0437 45.2012C38.8425 45.4379 38.6591 45.6864 38.4934 45.9468V52H36.8958V46.1065C36.8958 45.4675 36.7478 44.9527 36.452 44.5622C36.1561 44.1598 35.7478 43.9586 35.2271 43.9586C34.9668 43.9586 34.7123 44.0119 34.4638 44.1184C34.2153 44.2131 33.9727 44.3492 33.736 44.5267C33.5112 44.7042 33.2982 44.9113 33.097 45.148C32.8958 45.3847 32.7124 45.6332 32.5467 45.8935V52H30.9491V42.7693H32.4934V44.3136ZM54.0443 47.3846C54.0443 46.9231 53.9674 46.4852 53.8135 46.071C53.6715 45.6568 53.4644 45.2959 53.1922 44.9882C52.9319 44.6805 52.6183 44.4379 52.2514 44.2604C51.8964 44.071 51.5058 43.9764 51.0798 43.9764C50.1449 43.9764 49.4171 44.2841 48.8964 44.8994C48.3757 45.5148 48.1153 46.3314 48.1153 47.3491C48.1153 47.8107 48.1863 48.2545 48.3284 48.6805C48.4822 49.0947 48.6893 49.4616 48.9496 49.7811C49.2218 50.0888 49.5354 50.3373 49.8905 50.5266C50.2573 50.7041 50.6538 50.7929 51.0798 50.7929C51.5414 50.7929 51.9556 50.7101 52.3224 50.5444C52.6893 50.3787 52.997 50.1479 53.2455 49.8521C53.5058 49.5444 53.7011 49.1834 53.8313 48.7692C53.9733 48.355 54.0443 47.8935 54.0443 47.3846ZM46.4822 47.3846C46.4822 46.6391 46.6005 45.9704 46.8372 45.3787C47.0739 44.7752 47.3934 44.2663 47.7958 43.8521C48.21 43.4379 48.6952 43.1184 49.2514 42.8935C49.8195 42.6687 50.4289 42.5563 51.0798 42.5563C51.7189 42.5563 52.3165 42.6687 52.8727 42.8935C53.4408 43.1184 53.9319 43.4379 54.3461 43.8521C54.7603 44.2663 55.0857 44.7693 55.3224 45.361C55.5591 45.9527 55.6774 46.6154 55.6774 47.3491C55.6774 48.0829 55.5591 48.7515 55.3224 49.355C55.0975 49.9468 54.778 50.4556 54.3638 50.8817C53.9496 51.3077 53.4585 51.6391 52.8905 51.8757C52.3342 52.1006 51.7307 52.213 51.0798 52.213C50.4171 52.213 49.8017 52.0947 49.2337 51.858C48.6775 51.6213 48.1923 51.2899 47.7781 50.8639C47.3757 50.4379 47.0562 49.929 46.8195 49.3373C46.5946 48.7456 46.4822 48.0947 46.4822 47.3846ZM57.8015 38.864H59.3991V46.3728L63.5707 42.5918L64.4938 43.6036L60.9257 46.7633L65.2748 51.1124L64.1742 52.1775L59.3991 47.2604V52H57.8015V38.864ZM68.4655 52H66.8679V42.7693H68.4655V52ZM67.6667 41.1894C67.359 41.1894 67.0927 41.0829 66.8679 40.8699C66.6548 40.645 66.5483 40.3788 66.5483 40.0711C66.5483 39.7279 66.6489 39.4557 66.8501 39.2545C67.0513 39.0533 67.3235 38.9527 67.6667 38.9527C67.9744 38.9527 68.2347 39.0652 68.4477 39.29C68.6726 39.503 68.785 39.7634 68.785 40.0711C68.785 40.4143 68.6844 40.6865 68.4832 40.8876C68.2821 41.0888 68.0099 41.1894 67.6667 41.1894ZM72.8501 44.3136C73.1814 43.8166 73.6016 43.4024 74.1104 43.0711C74.6311 42.7279 75.2465 42.5563 75.9566 42.5563C76.998 42.5563 77.7731 42.8699 78.282 43.4971C78.8027 44.1243 79.0631 44.9527 79.0631 45.9823V52H77.4654V46.1598C77.4654 45.4852 77.3116 44.9527 77.0039 44.5622C76.6962 44.1598 76.2584 43.9586 75.6903 43.9586C75.4181 43.9586 75.1518 44.0119 74.8915 44.1184C74.6311 44.2131 74.3767 44.3492 74.1282 44.5267C73.8915 44.7042 73.6666 44.9113 73.4536 45.148C73.2525 45.3847 73.069 45.6332 72.9033 45.8935V52H71.3057V42.7693H72.8501V44.3136ZM85.4677 42.5563C86.0003 42.5563 86.4736 42.645 86.8878 42.8225C87.3139 43 87.6807 43.219 87.9884 43.4793V42.7693H89.444V51.787C89.444 52.5562 89.3434 53.213 89.1423 53.7574C88.9411 54.3018 88.6511 54.7455 88.2724 55.0887C87.9056 55.4438 87.4618 55.7041 86.9411 55.8698C86.4204 56.0355 85.8405 56.1183 85.2014 56.1183C84.6452 56.1183 84.1127 56.0532 83.6038 55.9231C83.095 55.7929 82.6393 55.5976 82.237 55.3373L82.8228 53.9527C83.1068 54.1775 83.4381 54.3609 83.8168 54.5029C84.1955 54.6568 84.6571 54.7337 85.2014 54.7337C86.0417 54.7337 86.6985 54.5148 87.1719 54.0769C87.6571 53.639 87.8997 52.929 87.8997 51.9467V50.8107C87.663 51.0947 87.3198 51.3669 86.8701 51.6272C86.4322 51.8757 85.9056 52 85.2902 52C84.7695 52 84.2606 51.8994 83.7636 51.6982C83.2665 51.4852 82.8287 51.1834 82.45 50.7929C82.0713 50.3905 81.7636 49.9053 81.5269 49.3373C81.3021 48.7574 81.1896 48.0947 81.1896 47.3491C81.1896 46.6627 81.3021 46.0296 81.5269 45.4497C81.7518 44.858 82.0535 44.3492 82.4322 43.9231C82.8228 43.4971 83.2784 43.1657 83.7991 42.929C84.3198 42.6805 84.876 42.5563 85.4677 42.5563ZM85.6452 50.5799C86.1186 50.5799 86.5446 50.4734 86.9233 50.2604C87.302 50.0473 87.6097 49.7988 87.8464 49.5148V44.6864C87.5742 44.4971 87.2606 44.3255 86.9056 44.1716C86.5506 44.0178 86.1245 43.9409 85.6275 43.9409C85.2606 43.9409 84.9056 44.0178 84.5624 44.1716C84.231 44.3137 83.9352 44.5267 83.6748 44.8107C83.4145 45.0947 83.2074 45.4438 83.0535 45.858C82.8997 46.2604 82.8228 46.7278 82.8228 47.2604C82.8228 47.7693 82.8997 48.2308 83.0535 48.645C83.2074 49.0474 83.4145 49.3965 83.6748 49.6923C83.9352 49.9763 84.231 50.1953 84.5624 50.3491C84.9056 50.503 85.2665 50.5799 85.6452 50.5799Z" fill="white"/>
</svg>
